<svg id="Capa_1" data-name="Capa 1" xmlns="http://www.w3.org/2000/svg" viewBox="0 0 300 300"><defs><style>.cls-1{fill:#38467d;opacity:0.81;}.cls-2{fill:#fff;}</style></defs><title>Sin título-1</title><circle class="cls-1" cx="150" cy="150" r="150"/><path class="cls-2" d="M343.28,301.77a74.25,74.25,0,1,1-95.46-98.85c1.11,7.8,2.43,17,4,28a47.25,47.25,0,1,0,70.25,47.74h10.34Zm73.07,3.17a6.75,6.75,0,0,1-3,9.05l-27.62,13.87a13.5,13.5,0,0,1-18.22-6.35L341,265.15H282.06a13.5,13.5,0,0,1-13.37-11.59c-14.29-100.08-13.47-93.86-13.63-96.41A27,27,0,1,1,286,183.86l2,13.79h54.83a6.75,6.75,0,0,1,6.75,6.75v13.5a6.75,6.75,0,0,1-6.75,6.75h-51l1.93,13.5h55.79a13.5,13.5,0,0,1,12.22,7.76L386,297.55l15.26-7.74a6.75,6.75,0,0,1,9.05,3Z" transform="translate(-160.45 -90.88)"/></svg>