<?xml version="1.0" encoding="utf-8"?>
<!-- Generator: Adobe Illustrator 24.0.0, SVG Export Plug-In . SVG Version: 6.00 Build 0)  -->
<svg version="1.1" id="Pagina_interna_Escritorio" xmlns="http://www.w3.org/2000/svg" xmlns:xlink="http://www.w3.org/1999/xlink"
	 x="0px" y="0px" viewBox="0 0 362.7 540.2" style="enable-background:new 0 0 362.7 540.2;" xml:space="preserve">
<style type="text/css">
	.st0{fill:url(#SVGID_1_);}
	.st1{opacity:0.8;}
	.st2{fill:#FFFFFF;}
	.st3{fill:#FEFEFE;}
	.st4{fill:#FDFDFD;}
	.st5{fill:#FCFCFC;}
	.st6{fill:#FBFBFB;}
	.st7{opacity:0.99;fill:#FAFAFA;enable-background:new    ;}
	.st8{opacity:0.99;fill:#F9F9F9;enable-background:new    ;}
	.st9{opacity:0.99;fill:#F8F8F8;enable-background:new    ;}
	.st10{opacity:0.99;fill:#F7F7F7;enable-background:new    ;}
	.st11{opacity:0.99;fill:#F6F6F6;enable-background:new    ;}
	.st12{opacity:0.99;fill:#F5F5F5;enable-background:new    ;}
	.st13{opacity:0.99;fill:#F4F4F4;enable-background:new    ;}
	.st14{opacity:0.99;fill:#F3F3F3;enable-background:new    ;}
	.st15{opacity:0.99;fill:#F2F2F2;enable-background:new    ;}
	.st16{opacity:0.99;fill:#F1F1F1;enable-background:new    ;}
	.st17{opacity:0.98;fill:#F0F0F0;enable-background:new    ;}
	.st18{opacity:0.98;fill:#EFEFEF;enable-background:new    ;}
	.st19{opacity:0.98;fill:#EEEEEE;enable-background:new    ;}
	.st20{opacity:0.98;fill:#EDEDED;enable-background:new    ;}
	.st21{opacity:0.98;fill:#ECECEC;enable-background:new    ;}
	.st22{opacity:0.98;fill:#EBEBEB;enable-background:new    ;}
	.st23{opacity:0.98;fill:#EAEAEA;enable-background:new    ;}
	.st24{opacity:0.98;fill:#E9E9E9;enable-background:new    ;}
	.st25{opacity:0.98;fill:#E8E8E8;enable-background:new    ;}
	.st26{opacity:0.97;fill:#E7E7E7;enable-background:new    ;}
	.st27{opacity:0.97;fill:#E6E6E6;enable-background:new    ;}
	.st28{opacity:0.97;fill:#E5E5E5;enable-background:new    ;}
	.st29{opacity:0.97;fill:#E4E4E4;enable-background:new    ;}
	.st30{opacity:0.97;fill:#E3E3E3;enable-background:new    ;}
	.st31{opacity:0.97;fill:#E2E2E2;enable-background:new    ;}
	.st32{opacity:0.97;fill:#E1E1E1;enable-background:new    ;}
	.st33{opacity:0.97;fill:#E0E0E0;enable-background:new    ;}
	.st34{opacity:0.97;fill:#DFDFDF;enable-background:new    ;}
	.st35{opacity:0.97;fill:#DEDEDE;enable-background:new    ;}
	.st36{opacity:0.96;fill:#DDDDDD;enable-background:new    ;}
	.st37{opacity:0.96;fill:#DCDCDC;enable-background:new    ;}
	.st38{opacity:0.96;fill:#DBDBDB;enable-background:new    ;}
	.st39{opacity:0.96;fill:#DADADA;enable-background:new    ;}
	.st40{opacity:0.96;fill:#D9D9D9;enable-background:new    ;}
	.st41{opacity:0.96;fill:#D8D8D8;enable-background:new    ;}
	.st42{opacity:0.96;fill:#D7D7D7;enable-background:new    ;}
	.st43{opacity:0.96;fill:#D6D6D6;enable-background:new    ;}
	.st44{opacity:0.96;fill:#D5D5D5;enable-background:new    ;}
	.st45{opacity:0.95;fill:#D4D4D4;enable-background:new    ;}
	.st46{opacity:0.95;fill:#D3D3D3;enable-background:new    ;}
	.st47{opacity:0.95;fill:#D2D2D2;enable-background:new    ;}
	.st48{opacity:0.95;fill:#D1D1D1;enable-background:new    ;}
	.st49{opacity:0.95;fill:#D0D0D0;enable-background:new    ;}
	.st50{opacity:0.95;fill:#CFCFCF;enable-background:new    ;}
	.st51{opacity:0.95;fill:#CECECE;enable-background:new    ;}
	.st52{opacity:0.95;fill:#CDCDCD;enable-background:new    ;}
	.st53{opacity:0.95;fill:#CCCCCC;enable-background:new    ;}
	.st54{opacity:0.94;fill:#CBCBCB;enable-background:new    ;}
	.st55{opacity:0.94;fill:#CACACA;enable-background:new    ;}
	.st56{opacity:0.94;fill:#C9C9C9;enable-background:new    ;}
	.st57{opacity:0.94;fill:#C8C8C8;enable-background:new    ;}
	.st58{opacity:0.94;fill:#C7C7C7;enable-background:new    ;}
	.st59{opacity:0.94;fill:#C6C6C6;enable-background:new    ;}
	.st60{opacity:0.94;fill:#C5C5C5;enable-background:new    ;}
	.st61{opacity:0.94;fill:#C4C4C4;enable-background:new    ;}
	.st62{opacity:0.94;fill:#C3C3C3;enable-background:new    ;}
	.st63{opacity:0.94;fill:#C2C2C2;enable-background:new    ;}
	.st64{opacity:0.93;fill:#C1C1C1;enable-background:new    ;}
	.st65{opacity:0.93;fill:#C0C0C0;enable-background:new    ;}
	.st66{opacity:0.93;fill:#BFBFBF;enable-background:new    ;}
	.st67{opacity:0.93;fill:#BEBEBE;enable-background:new    ;}
	.st68{opacity:0.93;fill:#BDBDBD;enable-background:new    ;}
	.st69{opacity:0.93;fill:#BCBCBC;enable-background:new    ;}
	.st70{opacity:0.93;fill:#BBBBBB;enable-background:new    ;}
	.st71{opacity:0.93;fill:#BABABA;enable-background:new    ;}
	.st72{opacity:0.93;fill:#B9B9B9;enable-background:new    ;}
	.st73{opacity:0.92;fill:#B8B8B8;enable-background:new    ;}
	.st74{opacity:0.92;fill:#B7B7B7;enable-background:new    ;}
	.st75{opacity:0.92;fill:#B6B6B6;enable-background:new    ;}
	.st76{opacity:0.92;fill:#B5B5B5;enable-background:new    ;}
	.st77{opacity:0.92;fill:#B4B4B4;enable-background:new    ;}
	.st78{opacity:0.92;fill:#B3B3B3;enable-background:new    ;}
	.st79{opacity:0.92;fill:#B2B2B2;enable-background:new    ;}
	.st80{opacity:0.92;fill:#B1B1B1;enable-background:new    ;}
	.st81{opacity:0.92;fill:#B0B0B0;enable-background:new    ;}
	.st82{opacity:0.92;fill:#AFAFAF;enable-background:new    ;}
	.st83{opacity:0.91;fill:#AEAEAE;enable-background:new    ;}
	.st84{opacity:0.91;fill:#ADADAD;enable-background:new    ;}
	.st85{opacity:0.91;fill:#ACACAC;enable-background:new    ;}
	.st86{opacity:0.91;fill:#ABABAB;enable-background:new    ;}
	.st87{opacity:0.91;fill:#AAAAAA;enable-background:new    ;}
	.st88{opacity:0.91;fill:#A9A9A9;enable-background:new    ;}
	.st89{opacity:0.91;fill:#A8A8A8;enable-background:new    ;}
	.st90{opacity:0.91;fill:#A7A7A7;enable-background:new    ;}
	.st91{opacity:0.91;fill:#A6A6A6;enable-background:new    ;}
	.st92{opacity:0.9;fill:#A5A5A5;enable-background:new    ;}
	.st93{opacity:0.9;fill:#A4A4A4;enable-background:new    ;}
	.st94{opacity:0.9;fill:#A3A3A3;enable-background:new    ;}
	.st95{opacity:0.9;fill:#A2A2A2;enable-background:new    ;}
	.st96{opacity:0.9;fill:#A1A1A1;enable-background:new    ;}
	.st97{opacity:0.9;fill:#A0A0A0;enable-background:new    ;}
	.st98{opacity:0.9;fill:#9F9F9F;enable-background:new    ;}
	.st99{opacity:0.9;fill:#9E9E9E;enable-background:new    ;}
	.st100{opacity:0.9;fill:#9D9D9D;enable-background:new    ;}
	.st101{opacity:0.9;fill:#9C9C9C;enable-background:new    ;}
	.st102{opacity:0.89;fill:#9B9B9B;enable-background:new    ;}
	.st103{opacity:0.89;fill:#9A9A9A;enable-background:new    ;}
	.st104{opacity:0.89;fill:#999999;enable-background:new    ;}
	.st105{opacity:0.89;fill:#989898;enable-background:new    ;}
	.st106{opacity:0.89;fill:#979797;enable-background:new    ;}
	.st107{opacity:0.89;fill:#969696;enable-background:new    ;}
	.st108{opacity:0.89;fill:#959595;enable-background:new    ;}
	.st109{opacity:0.89;fill:#949494;enable-background:new    ;}
	.st110{opacity:0.89;fill:#939393;enable-background:new    ;}
	.st111{opacity:0.88;fill:#929292;enable-background:new    ;}
	.st112{opacity:0.88;fill:#919191;enable-background:new    ;}
	.st113{opacity:0.88;fill:#909090;enable-background:new    ;}
	.st114{opacity:0.88;fill:#8F8F8F;enable-background:new    ;}
	.st115{opacity:0.88;fill:#8E8E8E;enable-background:new    ;}
	.st116{opacity:0.88;fill:#8D8D8D;enable-background:new    ;}
	.st117{opacity:0.88;fill:#8C8C8C;enable-background:new    ;}
	.st118{opacity:0.88;fill:#8B8B8B;enable-background:new    ;}
	.st119{opacity:0.88;fill:#8A8A8A;enable-background:new    ;}
	.st120{opacity:0.88;fill:#898989;enable-background:new    ;}
	.st121{opacity:0.87;fill:#888888;enable-background:new    ;}
	.st122{opacity:0.87;fill:#878787;enable-background:new    ;}
	.st123{opacity:0.87;fill:#868686;enable-background:new    ;}
	.st124{opacity:0.87;fill:#858585;enable-background:new    ;}
	.st125{opacity:0.87;fill:#848484;enable-background:new    ;}
	.st126{opacity:0.87;fill:#838383;enable-background:new    ;}
	.st127{opacity:0.87;fill:#828282;enable-background:new    ;}
	.st128{opacity:0.87;fill:#818181;enable-background:new    ;}
	.st129{opacity:0.87;fill:#808080;enable-background:new    ;}
	.st130{opacity:0.86;fill:#7F7F7F;enable-background:new    ;}
	.st131{opacity:0.86;fill:#7E7E7E;enable-background:new    ;}
	.st132{opacity:0.86;fill:#7D7D7D;enable-background:new    ;}
	.st133{opacity:0.86;fill:#7C7C7C;enable-background:new    ;}
	.st134{opacity:0.86;fill:#7B7B7B;enable-background:new    ;}
	.st135{opacity:0.86;fill:#7A7A7A;enable-background:new    ;}
	.st136{opacity:0.86;fill:#797979;enable-background:new    ;}
	.st137{opacity:0.86;fill:#787878;enable-background:new    ;}
	.st138{opacity:0.86;fill:#777777;enable-background:new    ;}
	.st139{opacity:0.86;fill:#767676;enable-background:new    ;}
	.st140{opacity:0.85;fill:#757575;enable-background:new    ;}
	.st141{opacity:0.85;fill:#747474;enable-background:new    ;}
	.st142{opacity:0.85;fill:#737373;enable-background:new    ;}
	.st143{opacity:0.85;fill:#727272;enable-background:new    ;}
	.st144{opacity:0.85;fill:#717171;enable-background:new    ;}
	.st145{opacity:0.85;fill:#707070;enable-background:new    ;}
	.st146{opacity:0.85;fill:#6F6F6F;enable-background:new    ;}
	.st147{opacity:0.85;fill:#6E6E6E;enable-background:new    ;}
	.st148{opacity:0.85;fill:#6D6D6D;enable-background:new    ;}
	.st149{opacity:0.84;fill:#6C6C6C;enable-background:new    ;}
	.st150{opacity:0.84;fill:#6B6B6B;enable-background:new    ;}
	.st151{opacity:0.84;fill:#6A6A6A;enable-background:new    ;}
	.st152{opacity:0.84;fill:#696969;enable-background:new    ;}
	.st153{opacity:0.84;fill:#686868;enable-background:new    ;}
	.st154{opacity:0.84;fill:#676767;enable-background:new    ;}
	.st155{opacity:0.84;fill:#666666;enable-background:new    ;}
	.st156{opacity:0.84;fill:#656565;enable-background:new    ;}
	.st157{opacity:0.84;fill:#646464;enable-background:new    ;}
	.st158{opacity:0.83;fill:#636363;enable-background:new    ;}
	.st159{opacity:0.83;fill:#626262;enable-background:new    ;}
	.st160{opacity:0.83;fill:#616161;enable-background:new    ;}
	.st161{opacity:0.83;fill:#606060;enable-background:new    ;}
	.st162{opacity:0.83;fill:#5F5F5F;enable-background:new    ;}
	.st163{opacity:0.83;fill:#5E5E5E;enable-background:new    ;}
	.st164{opacity:0.83;fill:#5D5D5D;enable-background:new    ;}
	.st165{opacity:0.83;fill:#5C5C5C;enable-background:new    ;}
	.st166{opacity:0.83;fill:#5B5B5B;enable-background:new    ;}
	.st167{opacity:0.83;fill:#5A5A5A;enable-background:new    ;}
	.st168{opacity:0.82;fill:#595959;enable-background:new    ;}
	.st169{opacity:0.82;fill:#585858;enable-background:new    ;}
	.st170{opacity:0.82;fill:#575757;enable-background:new    ;}
	.st171{opacity:0.82;fill:#565656;enable-background:new    ;}
	.st172{opacity:0.82;fill:#555555;enable-background:new    ;}
	.st173{opacity:0.82;fill:#545454;enable-background:new    ;}
	.st174{opacity:0.82;fill:#535353;enable-background:new    ;}
	.st175{opacity:0.82;fill:#525252;enable-background:new    ;}
	.st176{opacity:0.82;fill:#515151;enable-background:new    ;}
	.st177{opacity:0.81;fill:#505050;enable-background:new    ;}
	.st178{opacity:0.81;fill:#4F4F4F;enable-background:new    ;}
	.st179{opacity:0.81;fill:#4E4E4E;enable-background:new    ;}
	.st180{opacity:0.81;fill:#4D4D4D;enable-background:new    ;}
	.st181{opacity:0.81;fill:#4C4C4C;enable-background:new    ;}
	.st182{opacity:0.81;fill:#4B4B4B;enable-background:new    ;}
	.st183{opacity:0.81;fill:#4A4A4A;enable-background:new    ;}
	.st184{opacity:0.81;fill:#494949;enable-background:new    ;}
	.st185{opacity:0.81;fill:#484848;enable-background:new    ;}
	.st186{opacity:0.81;fill:#474747;enable-background:new    ;}
	.st187{opacity:0.8;fill:#464646;enable-background:new    ;}
	.st188{opacity:0.8;fill:#454545;enable-background:new    ;}
	.st189{opacity:0.8;fill:#444444;enable-background:new    ;}
	.st190{opacity:0.8;fill:#434343;enable-background:new    ;}
	.st191{opacity:0.8;fill:#424242;enable-background:new    ;}
	.st192{fill:#3F487D;}
	.st193{fill:url(#SVGID_2_);}
	.st194{opacity:0.12;enable-background:new    ;}
	.st195{fill:#5A6EB4;}
	.st196{opacity:0.2;enable-background:new    ;}
	.st197{fill:#F2F2F2;}
	.st198{fill:#E88E47;}
	.st199{opacity:0.35;enable-background:new    ;}
	.st200{fill:url(#SVGID_3_);}
	.st201{opacity:0.2;fill:#FFFFFF;enable-background:new    ;}
	.st202{fill:#450800;}
	.st203{fill:#B20A00;}
	.st204{fill:#C4C4C4;}
	.st205{opacity:0.36;enable-background:new    ;}
	.st206{fill:#1E1D1B;}
	.st207{fill:#424242;}
	.st208{fill:#F69E63;}
	.st209{opacity:0.1;enable-background:new    ;}
	.st210{fill:#707070;}
	.st211{fill-rule:evenodd;clip-rule:evenodd;fill:#FFFFFF;}
	.st212{fill-rule:evenodd;clip-rule:evenodd;fill:#3F487E;}
</style>
<title>nosotros</title>
<linearGradient id="SVGID_1_" gradientUnits="userSpaceOnUse" x1="3028.8" y1="-3409.6001" x2="3074.48" y2="-3409.6001" gradientTransform="matrix(1 0 0 -1 -2930.8 -3182.8)">
	<stop  offset="8.000000e-02" style="stop-color:#BDBDBD"/>
	<stop  offset="0.13" style="stop-color:#C2C2C2"/>
	<stop  offset="0.37" style="stop-color:#D7D7D7"/>
	<stop  offset="0.53" style="stop-color:#DFDFDF"/>
	<stop  offset="1" style="stop-color:#CDCDCD"/>
</linearGradient>
<polygon class="st0" points="137,195.7 98,232.3 111.1,257.9 143.8,210.4 "/>
<g class="st1">
	<ellipse class="st2" cx="220.3" cy="525.4" rx="142.3" ry="14.7"/>
	<ellipse class="st3" cx="220.3" cy="525.4" rx="142" ry="14.7"/>
	<ellipse class="st4" cx="220.3" cy="525.4" rx="141.6" ry="14.7"/>
	<ellipse class="st5" cx="220.3" cy="525.4" rx="141.3" ry="14.6"/>
	<ellipse class="st6" cx="220.3" cy="525.4" rx="141.1" ry="14.6"/>
	<ellipse class="st7" cx="220.3" cy="525.4" rx="140.8" ry="14.6"/>
	<ellipse class="st8" cx="220.3" cy="525.4" rx="140.5" ry="14.6"/>
	<ellipse class="st9" cx="220.3" cy="525.4" rx="140.1" ry="14.6"/>
	<ellipse class="st10" cx="220.3" cy="525.4" rx="139.8" ry="14.4"/>
	<ellipse class="st11" cx="220.3" cy="525.4" rx="139.4" ry="14.4"/>
	<ellipse class="st12" cx="220.3" cy="525.4" rx="139.1" ry="14.4"/>
	<ellipse class="st13" cx="220.3" cy="525.4" rx="138.8" ry="14.4"/>
	<ellipse class="st14" cx="220.3" cy="525.4" rx="138.4" ry="14.4"/>
	<ellipse class="st15" cx="220.3" cy="525.4" rx="138.1" ry="14.4"/>
	<ellipse class="st16" cx="220.3" cy="525.4" rx="137.8" ry="14.2"/>
	<ellipse class="st17" cx="220.3" cy="525.4" rx="137.6" ry="14.2"/>
	<ellipse class="st18" cx="220.3" cy="525.4" rx="137.2" ry="14.2"/>
	<ellipse class="st19" cx="220.3" cy="525.4" rx="136.9" ry="14.2"/>
	<ellipse class="st20" cx="220.3" cy="525.4" rx="136.6" ry="14.2"/>
	<ellipse class="st21" cx="220.3" cy="525.4" rx="136.2" ry="14.1"/>
	<ellipse class="st22" cx="220.3" cy="525.4" rx="135.9" ry="14.1"/>
	<ellipse class="st23" cx="220.3" cy="525.4" rx="135.5" ry="14.1"/>
	<ellipse class="st24" cx="220.3" cy="525.4" rx="135.2" ry="14.1"/>
	<ellipse class="st25" cx="220.3" cy="525.4" rx="134.9" ry="14.1"/>
	<ellipse class="st26" cx="220.3" cy="525.4" rx="134.5" ry="13.9"/>
	<ellipse class="st27" cx="220.3" cy="525.4" rx="134.2" ry="13.9"/>
	<ellipse class="st28" cx="220.3" cy="525.4" rx="134" ry="13.9"/>
	<ellipse class="st29" cx="220.3" cy="525.4" rx="133.7" ry="13.9"/>
	<ellipse class="st30" cx="220.3" cy="525.4" rx="133.3" ry="13.7"/>
	<ellipse class="st31" cx="220.3" cy="525.4" rx="133" ry="13.7"/>
	<ellipse class="st32" cx="220.3" cy="525.4" rx="132.7" ry="13.7"/>
	<ellipse class="st33" cx="220.3" cy="525.4" rx="132.3" ry="13.7"/>
	<ellipse class="st34" cx="220.3" cy="525.4" rx="132" ry="13.7"/>
	<ellipse class="st35" cx="220.3" cy="525.4" rx="131.7" ry="13.6"/>
	<ellipse class="st36" cx="220.3" cy="525.4" rx="131.3" ry="13.6"/>
	<ellipse class="st37" cx="220.3" cy="525.4" rx="131" ry="13.6"/>
	<ellipse class="st38" cx="220.3" cy="525.4" rx="130.6" ry="13.6"/>
	<ellipse class="st39" cx="220.3" cy="525.4" rx="130.3" ry="13.6"/>
	<ellipse class="st40" cx="220.3" cy="525.4" rx="130.1" ry="13.6"/>
	<ellipse class="st41" cx="220.3" cy="525.4" rx="129.8" ry="13.4"/>
	<ellipse class="st42" cx="220.3" cy="525.4" rx="129.5" ry="13.4"/>
	<ellipse class="st43" cx="220.3" cy="525.4" rx="129.1" ry="13.4"/>
	<ellipse class="st44" cx="220.3" cy="525.4" rx="128.8" ry="13.4"/>
	<ellipse class="st45" cx="220.3" cy="525.4" rx="128.4" ry="13.4"/>
	<ellipse class="st46" cx="220.3" cy="525.4" rx="128.1" ry="13.2"/>
	<ellipse class="st47" cx="220.3" cy="525.4" rx="127.8" ry="13.2"/>
	<ellipse class="st48" cx="220.3" cy="525.4" rx="127.4" ry="13.2"/>
	<ellipse class="st49" cx="220.3" cy="525.4" rx="127.1" ry="13.2"/>
	<ellipse class="st50" cx="220.3" cy="525.4" rx="126.7" ry="13.2"/>
	<ellipse class="st51" cx="220.3" cy="525.4" rx="126.6" ry="13"/>
	<ellipse class="st52" cx="220.3" cy="525.4" rx="126.2" ry="13"/>
	<ellipse class="st53" cx="220.3" cy="525.4" rx="125.9" ry="13"/>
	<ellipse class="st54" cx="220.3" cy="525.4" rx="125.6" ry="13"/>
	<ellipse class="st55" cx="220.3" cy="525.4" rx="125.2" ry="13"/>
	<ellipse class="st56" cx="220.3" cy="525.4" rx="124.9" ry="12.9"/>
	<ellipse class="st57" cx="220.3" cy="525.4" rx="124.5" ry="12.9"/>
	<ellipse class="st58" cx="220.3" cy="525.4" rx="124.2" ry="12.9"/>
	<ellipse class="st59" cx="220.3" cy="525.4" rx="123.9" ry="12.9"/>
	<path class="st60" d="M343.8,525.4c0,7.1-55.4,12.9-123.5,12.9s-123.5-5.8-123.5-12.9s55.4-12.9,123.5-12.9
		S343.8,518.3,343.8,525.4z"/>
	<ellipse class="st61" cx="220.3" cy="525.4" rx="123.2" ry="12.7"/>
	<ellipse class="st62" cx="220.3" cy="525.4" rx="123" ry="12.7"/>
	<ellipse class="st63" cx="220.3" cy="525.4" rx="122.7" ry="12.7"/>
	<ellipse class="st64" cx="220.3" cy="525.4" rx="122.3" ry="12.7"/>
	<ellipse class="st65" cx="220.3" cy="525.4" rx="122" ry="12.7"/>
	<ellipse class="st66" cx="220.3" cy="525.4" rx="121.7" ry="12.5"/>
	<ellipse class="st67" cx="220.3" cy="525.4" rx="121.3" ry="12.5"/>
	<ellipse class="st68" cx="220.3" cy="525.4" rx="121" ry="12.5"/>
	<ellipse class="st69" cx="220.3" cy="525.4" rx="120.6" ry="12.5"/>
	<ellipse class="st70" cx="220.3" cy="525.4" rx="120.3" ry="12.5"/>
	<ellipse class="st71" cx="220.3" cy="525.4" rx="120" ry="12.4"/>
	<ellipse class="st72" cx="220.3" cy="525.4" rx="119.6" ry="12.4"/>
	<ellipse class="st73" cx="220.3" cy="525.4" rx="119.3" ry="12.4"/>
	<ellipse class="st74" cx="220.3" cy="525.4" rx="119.1" ry="12.4"/>
	<ellipse class="st75" cx="220.3" cy="525.4" rx="118.8" ry="12.4"/>
	<ellipse class="st76" cx="220.3" cy="525.4" rx="118.4" ry="12.2"/>
	<ellipse class="st77" cx="220.3" cy="525.4" rx="118.1" ry="12.2"/>
	<ellipse class="st78" cx="220.3" cy="525.4" rx="117.8" ry="12.2"/>
	<ellipse class="st79" cx="220.3" cy="525.4" rx="117.4" ry="12.2"/>
	<ellipse class="st80" cx="220.3" cy="525.4" rx="117.1" ry="12.2"/>
	<path class="st81" d="M337,525.4c0,6.8-52.4,12-116.7,12s-116.7-5.4-116.7-12s52.2-12,116.7-12S337,518.6,337,525.4z"/>
	<ellipse class="st82" cx="220.3" cy="525.4" rx="116.4" ry="12"/>
	<ellipse class="st83" cx="220.3" cy="525.4" rx="116.1" ry="12"/>
	<ellipse class="st84" cx="220.3" cy="525.4" rx="115.7" ry="12"/>
	<path class="st85" d="M335.9,525.4c0,6.6-51.7,12-115.6,12s-115.4-5.6-115.4-12s51.7-12,115.6-12S335.9,518.6,335.9,525.4z"/>
	<path class="st86" d="M335.5,525.4c0,6.6-51.5,11.9-115.2,11.9s-115.2-5.3-115.2-11.9s51.5-11.9,115.2-11.9
		S335.5,518.8,335.5,525.4z"/>
	<ellipse class="st87" cx="220.3" cy="525.4" rx="114.9" ry="11.9"/>
	<ellipse class="st88" cx="220.3" cy="525.4" rx="114.5" ry="11.9"/>
	<ellipse class="st89" cx="220.3" cy="525.4" rx="114.2" ry="11.9"/>
	<ellipse class="st90" cx="220.3" cy="525.4" rx="113.9" ry="11.9"/>
	<ellipse class="st91" cx="220.3" cy="525.4" rx="113.5" ry="11.7"/>
	<ellipse class="st92" cx="220.3" cy="525.4" rx="113.2" ry="11.7"/>
	<ellipse class="st93" cx="220.3" cy="525.4" rx="112.8" ry="11.7"/>
	<ellipse class="st94" cx="220.3" cy="525.4" rx="112.5" ry="11.7"/>
	<path class="st95" d="M332.6,525.4c0,6.4-50.3,11.7-112.2,11.7s-112.2-5.3-112.2-11.7s50.3-11.7,112.2-11.7S332.6,519,332.6,525.4z
		"/>
	<path class="st96" d="M332.3,525.4c0,6.4-50.2,11.5-112,11.5s-112-5.3-112-11.5s50.2-11.7,112-11.7S332.3,519,332.3,525.4z"/>
	<ellipse class="st97" cx="220.3" cy="525.4" rx="111.7" ry="11.5"/>
	<ellipse class="st98" cx="220.3" cy="525.4" rx="111.3" ry="11.5"/>
	<ellipse class="st99" cx="220.3" cy="525.4" rx="111" ry="11.5"/>
	<ellipse class="st100" cx="220.3" cy="525.4" rx="110.6" ry="11.5"/>
	<ellipse class="st101" cx="220.3" cy="525.4" rx="110.3" ry="11.5"/>
	<ellipse class="st102" cx="220.3" cy="525.4" rx="110" ry="11.4"/>
	<ellipse class="st103" cx="220.3" cy="525.4" rx="109.6" ry="11.4"/>
	<ellipse class="st104" cx="220.3" cy="525.4" rx="109.3" ry="11.4"/>
	<ellipse class="st105" cx="220.3" cy="525.4" rx="108.9" ry="11.4"/>
	<path class="st106" d="M329.1,525.4c0,6.3-48.6,11.2-108.6,11.2s-108.6-5.1-108.6-11.2s48.6-11.2,108.6-11.2
		S329.1,519.1,329.1,525.4z"/>
	<ellipse class="st107" cx="220.3" cy="525.4" rx="108.3" ry="11.2"/>
	<ellipse class="st108" cx="220.3" cy="525.4" rx="108.1" ry="11.2"/>
	<path class="st109" d="M328.1,525.4c0,6.1-48.3,11.2-107.8,11.2s-107.8-5.1-107.8-11.2s48.3-11.2,107.8-11.2
		S328.1,519.1,328.1,525.4z"/>
	<path class="st110" d="M327.7,525.4c0,6.1-48.1,11.2-107.4,11.2s-107.4-4.9-107.4-11.2s48.1-11.2,107.4-11.2
		S327.7,519.1,327.7,525.4z"/>
	<path class="st111" d="M327.4,525.4c0,6.1-48,11-107.1,11s-107.1-4.9-107.1-11s48-11,107.1-11S327.4,519.1,327.4,525.4z"/>
	<ellipse class="st112" cx="220.3" cy="525.4" rx="106.7" ry="11"/>
	<ellipse class="st113" cx="220.3" cy="525.4" rx="106.4" ry="11"/>
	<ellipse class="st114" cx="220.3" cy="525.4" rx="106.1" ry="11"/>
	<ellipse class="st115" cx="220.3" cy="525.4" rx="105.7" ry="11"/>
	<path class="st116" d="M325.7,525.4c0,6.1-47.3,11-105.4,11s-105.4-4.9-105.4-11s47.3-11,105.4-11S325.7,519.3,325.7,525.4z"/>
	<ellipse class="st117" cx="220.3" cy="525.4" rx="105.1" ry="10.8"/>
	<ellipse class="st118" cx="220.3" cy="525.4" rx="104.7" ry="10.8"/>
	<ellipse class="st119" cx="220.3" cy="525.4" rx="104.5" ry="10.8"/>
	<path class="st120" d="M324.5,525.4c0,5.9-46.6,10.8-104.2,10.8s-104.2-4.9-104.2-10.8s46.6-10.8,104.2-10.8
		S324.5,519.3,324.5,525.4z"/>
	<path class="st121" d="M324.2,525.4c0,5.9-46.4,10.8-103.9,10.8s-103.9-4.7-103.9-10.8s46.4-10.8,103.9-10.8
		S324.2,519.3,324.2,525.4z"/>
	<path class="st122" d="M323.8,525.4c0,5.9-46.4,10.7-103.5,10.7s-103.5-4.7-103.5-10.7s46.3-10.7,103.5-10.7
		S323.8,519.5,323.8,525.4z"/>
	<ellipse class="st123" cx="220.3" cy="525.4" rx="103.2" ry="10.7"/>
	<ellipse class="st124" cx="220.3" cy="525.4" rx="102.8" ry="10.7"/>
	<ellipse class="st125" cx="220.3" cy="525.4" rx="102.5" ry="10.7"/>
	<ellipse class="st126" cx="220.3" cy="525.4" rx="102.2" ry="10.7"/>
	<path class="st127" d="M322.1,525.4c0,5.8-45.6,10.5-101.8,10.5s-101.8-4.7-101.8-10.5s45.6-10.5,101.8-10.5
		S322.1,519.5,322.1,525.4z"/>
	<ellipse class="st128" cx="220.3" cy="525.4" rx="101.5" ry="10.5"/>
	<ellipse class="st129" cx="220.3" cy="525.4" rx="101.2" ry="10.5"/>
	<path class="st130" d="M321.3,525.4c0,5.8-45.2,10.5-101,10.5s-101-4.7-101-10.5s45.2-10.5,101-10.5S321.3,519.5,321.3,525.4z"/>
	<path class="st131" d="M320.9,525.4c0,5.8-45.1,10.3-100.6,10.3s-100.6-4.7-100.6-10.3s45.1-10.3,100.6-10.3
		S320.9,519.7,320.9,525.4z"/>
	<path class="st132" d="M320.6,525.4c0,5.8-44.9,10.3-100.3,10.3S120,531.1,120,525.4s44.9-10.3,100.3-10.3S320.6,519.7,320.6,525.4
		z"/>
	<ellipse class="st133" cx="220.3" cy="525.4" rx="100" ry="10.3"/>
	<path class="st134" d="M319.9,525.4c0,5.8-44.6,10.3-99.6,10.3s-99.6-4.6-99.6-10.3s44.6-10.3,99.6-10.3S319.9,519.7,319.9,525.4z"
		/>
	<path class="st135" d="M319.6,525.4c0,5.8-44.4,10.3-99.3,10.3s-99.3-4.6-99.3-10.3s44.4-10.3,99.3-10.3S319.6,519.7,319.6,525.4z"
		/>
	<path class="st136" d="M319.3,525.4c0,5.6-44.2,10.2-99,10.2s-99-4.6-99-10.2s44.4-10.2,99-10.2S319.3,519.7,319.3,525.4z"/>
	<path class="st137" d="M318.9,525.4c0,5.6-44.2,10.2-98.6,10.2s-98.6-4.6-98.6-10.2s44.2-10.2,98.6-10.2S318.9,519.7,318.9,525.4z"
		/>
	<ellipse class="st138" cx="220.3" cy="525.4" rx="98.3" ry="10.2"/>
	<ellipse class="st139" cx="220.3" cy="525.4" rx="97.9" ry="10.2"/>
	<ellipse class="st140" cx="220.3" cy="525.4" rx="97.6" ry="10.2"/>
	<path class="st141" d="M317.7,525.4c0,5.6-43.5,10.2-97.3,10.2s-97.3-4.6-97.3-10.2s43.5-10.2,97.3-10.2S317.7,519.8,317.7,525.4z"
		/>
	<path class="st142" d="M317.4,525.4c0,5.6-43.4,10-97.1,10s-97.1-4.6-97.1-10s43.4-10,97.1-10S317.4,519.8,317.4,525.4z"/>
	<ellipse class="st143" cx="220.3" cy="525.4" rx="96.7" ry="10"/>
	<path class="st144" d="M316.7,525.4c0,5.6-43.2,10-96.4,10s-96.4-4.4-96.4-10s43.2-10,96.4-10S316.7,519.8,316.7,525.4z"/>
	<path class="st145" d="M316.4,525.4c0,5.6-43,10-96.1,10s-96.1-4.4-96.1-10s43-10,96.1-10S316.4,519.8,316.4,525.4z"/>
	<path class="st146" d="M316,525.4c0,5.4-42.9,10-95.7,10s-95.7-4.4-95.7-10s42.9-10,95.7-10S316,519.8,316,525.4z"/>
	<path class="st147" d="M315.7,525.4c0,5.4-42.7,9.8-95.4,9.8s-95.4-4.4-95.4-9.8s42.7-9.8,95.4-9.8S315.7,519.8,315.7,525.4z"/>
	<ellipse class="st148" cx="220.3" cy="525.4" rx="95.1" ry="9.8"/>
	<ellipse class="st149" cx="220.3" cy="525.4" rx="94.7" ry="9.8"/>
	<ellipse class="st150" cx="220.3" cy="525.4" rx="94.4" ry="9.8"/>
	<path class="st151" d="M314.3,525.4c0,5.4-42.2,9.8-94,9.8s-94-4.4-94-9.8s42.2-9.8,94-9.8S314.3,520,314.3,525.4z"/>
	<path class="st152" d="M314.2,525.4c0,5.4-42,9.7-93.7,9.7s-93.7-4.4-93.7-9.7s42-9.7,93.7-9.7S314.2,520,314.2,525.4z"/>
	<ellipse class="st153" cx="220.3" cy="525.4" rx="93.5" ry="9.7"/>
	<ellipse class="st154" cx="220.3" cy="525.4" rx="93.2" ry="9.7"/>
	<path class="st155" d="M313.2,525.4c0,5.3-41.5,9.7-92.9,9.7s-92.9-4.2-92.9-9.7s41.5-9.7,92.9-9.7S313.2,520,313.2,525.4z"/>
	<path class="st156" d="M312.8,525.4c0,5.3-41.3,9.7-92.5,9.7s-92.5-4.2-92.5-9.7s41.3-9.7,92.5-9.7S312.8,520,312.8,525.4z"/>
	<path class="st157" d="M312.5,525.4c0,5.3-41.3,9.5-92.2,9.5s-92.2-4.2-92.2-9.5s41.2-9.5,92.2-9.5S312.5,520,312.5,525.4z"/>
	<ellipse class="st158" cx="220.3" cy="525.4" rx="91.8" ry="9.5"/>
	<path class="st159" d="M311.8,525.4c0,5.3-41,9.5-91.5,9.5s-91.5-4.2-91.5-9.5s41-9.5,91.5-9.5S311.8,520,311.8,525.4z"/>
	<path class="st160" d="M311.5,525.4c0,5.3-40.8,9.5-91.2,9.5s-91.2-4.2-91.2-9.5s40.8-9.5,91.2-9.5S311.5,520.2,311.5,525.4z"/>
	<path class="st161" d="M311.1,525.4c0,5.3-40.7,9.5-90.8,9.5s-90.8-4.2-90.8-9.5s40.7-9.5,90.8-9.5S311.1,520.2,311.1,525.4z"/>
	<path class="st162" d="M310.8,525.4c0,5.3-40.5,9.3-90.5,9.3s-90.5-4.2-90.5-9.3s40.5-9.3,90.5-9.3S310.8,520.2,310.8,525.4z"/>
	<ellipse class="st163" cx="220.3" cy="525.4" rx="90.1" ry="9.3"/>
	<ellipse class="st164" cx="220.3" cy="525.4" rx="90" ry="9.3"/>
	<path class="st165" d="M309.9,525.4c0,5.1-40.2,9.3-89.6,9.3s-89.6-4.2-89.6-9.3s40.2-9.3,89.6-9.3S309.9,520.2,309.9,525.4z"/>
	<path class="st166" d="M309.6,525.4c0,5.1-40,9.3-89.3,9.3s-89.3-4.1-89.3-9.3s40-9.3,89.3-9.3S309.6,520.2,309.6,525.4z"/>
	<path class="st167" d="M309.3,525.4c0,5.1-39.8,9.1-89,9.1s-89-4.1-89-9.1s39.8-9.1,89-9.1S309.3,520.2,309.3,525.4z"/>
	<path class="st168" d="M308.9,525.4c0,5.1-39.6,9.1-88.6,9.1s-88.6-4.1-88.6-9.1s39.6-9.1,88.6-9.1S308.9,520.3,308.9,525.4z"/>
	<path class="st169" d="M308.6,525.4c0,5.1-39.5,9.1-88.3,9.1s-88.3-4.1-88.3-9.1s39.5-9.1,88.3-9.1S308.6,520.3,308.6,525.4z"/>
	<path class="st170" d="M308.2,525.4c0,5.1-39.3,9.1-87.9,9.1s-87.9-4.1-87.9-9.1s39.3-9.1,87.9-9.1S308.2,520.3,308.2,525.4z"/>
	<path class="st171" d="M307.9,525.4c0,5.1-39.3,9.1-87.6,9.1s-87.6-4.1-87.6-9.1s39.3-9.1,87.6-9.1S307.9,520.3,307.9,525.4z"/>
	<path class="st172" d="M307.6,525.4c0,5.1-39.1,9-87.3,9s-87.3-4.1-87.3-9s39.1-9,87.3-9S307.6,520.3,307.6,525.4z"/>
	<path class="st173" d="M307.2,525.4c0,4.9-39,9-86.9,9s-86.9-4.1-86.9-9s39-9,86.9-9S307.2,520.3,307.2,525.4z"/>
	<ellipse class="st174" cx="220.3" cy="525.4" rx="86.6" ry="9"/>
	<ellipse class="st175" cx="220.3" cy="525.4" rx="86.2" ry="9"/>
	<path class="st176" d="M306.4,525.4c0,4.9-38.5,9-86.1,9s-86.1-4.1-86.1-9s38.5-9,86.1-9S306.4,520.3,306.4,525.4z"/>
	<path class="st177" d="M306,525.4c0,4.9-38.3,8.8-85.7,8.8s-85.7-3.9-85.7-8.8s38.3-8.8,85.7-8.8S306,520.5,306,525.4z"/>
	<path class="st178" d="M305.7,525.4c0,4.9-38.3,8.8-85.4,8.8s-85.4-3.9-85.4-8.8s38.3-8.8,85.4-8.8S305.7,520.5,305.7,525.4z"/>
	<path class="st179" d="M305.4,525.4c0,4.9-38.1,8.8-85.1,8.8s-85.1-3.9-85.1-8.8s38.1-8.8,85.1-8.8S305.4,520.5,305.4,525.4z"/>
	<path class="st180" d="M305,525.4c0,4.9-38,8.8-84.7,8.8s-84.7-3.9-84.7-8.8s38-8.8,84.7-8.8S305,520.5,305,525.4z"/>
	<path class="st181" d="M304.7,525.4c0,4.9-37.8,8.8-84.4,8.8s-84.4-3.9-84.4-8.8s37.8-8.8,84.4-8.8S304.7,520.5,304.7,525.4z"/>
	<path class="st182" d="M304.3,525.4c0,4.7-37.6,8.6-84,8.6s-84-3.9-84-8.6s37.6-8.6,84-8.6S304.3,520.5,304.3,525.4z"/>
	<path class="st183" d="M304,525.4c0,4.7-37.4,8.6-83.7,8.6s-83.7-3.9-83.7-8.6s37.4-8.6,83.7-8.6S304,520.5,304,525.4z"/>
	<path class="st184" d="M303.7,525.4c0,4.7-37.3,8.6-83.4,8.6s-83.4-3.9-83.4-8.6s37.3-8.6,83.4-8.6S303.7,520.5,303.7,525.4z"/>
	<path class="st185" d="M303.3,525.4c0,4.7-37.3,8.6-83,8.6s-83-3.9-83-8.6s37.3-8.6,83-8.6S303.3,520.5,303.3,525.4z"/>
	<path class="st186" d="M303.2,525.4c0,4.7-37.1,8.6-82.7,8.6s-82.7-3.9-82.7-8.6s37.1-8.6,82.7-8.6S303.2,520.7,303.2,525.4z"/>
	<path class="st187" d="M302.8,525.4c0,4.7-36.9,8.5-82.5,8.5s-82.5-3.9-82.5-8.5s36.9-8.5,82.5-8.5S302.8,520.7,302.8,525.4z"/>
	<path class="st188" d="M302.5,525.4c0,4.7-36.8,8.5-82.2,8.5s-82.2-3.9-82.2-8.5s36.8-8.5,82.2-8.5S302.5,520.7,302.5,525.4z"/>
	<ellipse class="st189" cx="220.3" cy="525.4" rx="81.8" ry="8.5"/>
	<path class="st190" d="M301.8,525.4c0,4.7-36.4,8.5-81.5,8.5s-81.5-3.7-81.5-8.5s36.4-8.5,81.5-8.5S301.8,520.7,301.8,525.4z"/>
	<path class="st191" d="M301.5,525.4c0,4.6-36.3,8.5-81.2,8.5s-81.2-3.7-81.2-8.5s36.3-8.5,81.2-8.5S301.5,520.7,301.5,525.4z"/>
</g>
<path class="st192" d="M176.2,373.4l24.7,127.8l-17.3-0.8l-10.7-65.1c-5.6-26.8-29-72.9-29-72.9L176.2,373.4z"/>
<path class="st192" d="M217.1,375l18.5,131.3l16.3-5.9l-8.6-65.2c-2.4-27.3,0-67.3,0-67.3L217.1,375z"/>
<linearGradient id="SVGID_2_" gradientUnits="userSpaceOnUse" x1="3059.917" y1="-3446.45" x2="3198.4512" y2="-3446.45" gradientTransform="matrix(1 0 0 -1 -2930.8 -3182.8)">
	<stop  offset="8.000000e-02" style="stop-color:#BDBDBD"/>
	<stop  offset="0.13" style="stop-color:#C2C2C2"/>
	<stop  offset="0.37" style="stop-color:#D7D7D7"/>
	<stop  offset="0.53" style="stop-color:#DFDFDF"/>
	<stop  offset="1" style="stop-color:#CDCDCD"/>
</linearGradient>
<path class="st193" d="M134.6,185.7c-2.2,23.6-6.1,137.1-5.4,138.3l122,17.6c-0.2-4.6,18.3-140.1,16.3-147.9L204,211.5L134.6,185.7z
	"/>
<polygon class="st194" points="161.7,108.6 198.5,110 198.7,100 159.7,101.3 "/>
<polygon class="st195" points="163.1,105.9 199.8,107.3 199.8,97.3 160.9,98.6 "/>
<polygon class="st194" points="248.5,120.3 215.4,109.8 218.3,101 252.5,114.5 "/>
<polygon class="st195" points="246.8,117.6 213.9,107.1 216.6,98.3 250.8,111.8 "/>
<path class="st192" d="M129.1,324c0,0-0.3,30.5,9.8,39.1s69,31.3,102.8,7.5c7.3-6.3,10.3-21.9,9.5-31.2L129.1,324z"/>
<path class="st196" d="M189.6,125.7c-0.5,5.3-3.7,9.1-6.9,8.8s-5.4-4.9-4.7-10s3.7-9.1,6.9-8.8S190.1,120.5,189.6,125.7z"/>
<ellipse transform="matrix(0.1097 -0.994 0.994 0.1097 69.737 339.3668)" class="st196" cx="224.3" cy="130.8" rx="9.5" ry="5.6"/>
<path d="M187.6,123.8c-0.5,4.4-2.5,7.6-4.6,7.5s-3.4-3.9-2.9-8.3s2.5-7.6,4.6-7.5S188.1,119.6,187.6,123.8z"/>
<path d="M226.7,127.6c-0.5,4.4-2.5,7.6-4.6,7.5s-3.2-3.9-2.9-8.3s2.5-7.6,4.6-7.5S227.2,123.2,226.7,127.6z"/>
<path class="st197" d="M185.1,497.8l-25.9,8.1c0,0-20.5-3.2-24.9,8.3c-2.9,7.6-3.6,10.3-3.6,10.3l73-0.3c0.3-6.6-1.9-24.6-1.9-24.6
	L185.1,497.8z"/>
<path class="st197" d="M251.5,497.8l25.9,8.1c0,0,20.5-3.2,24.9,8.3c2.7,7.6,3.6,10.3,3.6,10.3l-73-0.3c-0.3-6.6,1.9-24.6,1.9-24.6
	L251.5,497.8z"/>
<polygon class="st198" points="230,330.4 237.8,352.1 242.2,360.6 286.8,344.6 297.3,335 284.4,311.1 284.4,311.1 284.4,311.1 
	282.9,308.4 277.9,309.1 255.2,300.6 254.2,313 "/>
<path class="st199" d="M284.3,311.1L284.3,311.1l-1.5-2.7l-4.9,0.7l-9.1-2.7c1.5,4.2,10.7,28.8,15.8,39l2.2-0.8l5.8-5.3l4.2-5.4
	L284.3,311.1z"/>
<linearGradient id="SVGID_3_" gradientUnits="userSpaceOnUse" x1="5603.4658" y1="-3712.6443" x2="5675.7461" y2="-3712.6443" gradientTransform="matrix(-0.98 -0.17 0.17 -0.98 6496.2803 -2393.05)">
	<stop  offset="8.000000e-02" style="stop-color:#BDBDBD"/>
	<stop  offset="0.13" style="stop-color:#C2C2C2"/>
	<stop  offset="0.37" style="stop-color:#D7D7D7"/>
	<stop  offset="0.53" style="stop-color:#DFDFDF"/>
	<stop  offset="1" style="stop-color:#CDCDCD"/>
</linearGradient>
<path class="st200" d="M266,206.5c-0.2,2.7-0.3,6.8-0.8,11.7c43.9,32.4,30.5,58.8,6.6,85.7c0,0,11.9,32.4,17.1,41.7
	C371.4,284.3,285.2,219.6,266,206.5z"/>
<path class="st192" d="M273.7,95.2c0-11.7-0.8-20.8-2.4-26.8l-21.7-0.8l-3.7-0.2c-24.1-1-48.3-2-72.3-2.9c-2.4,0-4.6-0.2-6.9-0.3
	l-25.9-1c-1.5,8-2.5,16.1-3,24.2c-0.8,10.2-1.4,22.2-2,35.6c3.7-4.4,5.6-16.8,6.1-19.3c1.9-9.5,3.4-19.1,9.8-26.8
	c13.2-15.4,22.5-1.5,34.4,7.1s26.1,13.6,40.8,13c7.3-0.3,14.5-1.7,21.3-4.2c3.9-1.4,10.8-6.8,15.2-5.4c6.1,1.9,5.9,13,6.4,18
	c0.3,3.4-1,15.9,2.2,18l0.8,0.5C273.5,113.3,273.8,103.7,273.7,95.2z"/>
<path class="st192" d="M284.2,84.4c0,6.9-0.9,13.7-2.7,20.3c-1.2,4.4-3.6,14.2-8,16.4c-2.4-4.4-0.5-10-1-14.7s-0.8-10.5-3-14.9
	c-4.7-9.1-14.1-15.8-10.2-26.9c2.9-8.1,11.7-6.4,17.3-1.5S284,77.1,284.2,84.4z"/>
<path class="st192" d="M282.1,71.7c-1.1-3.3-3-6.3-5.6-8.6c-1.5-1.4-3.2-2.5-5.1-3.2c-5.6,3.4-9.8,10-11.7,16.4
	c2.4,5.3,6.8,9.8,9.7,15.2s2.7,10,3,14.9s-1.4,10.2,0.8,14.4c4.9-7.3,3.9-22,2.2-28.6c-1.2-4.6-3.2-8.1-1.2-12.9
	C276,76,278.7,73.3,282.1,71.7z"/>
<path class="st192" d="M160,35.9c-3.6,5.8-4.7,13.6-2.2,19.8s9.8,8.3,15.9,11c6.5,2.8,12.5,6.5,18.1,10.8c5.9,4.7,11.9,9.8,19.3,12
	c11.2,3.4,23.4,3,34.7,0.8c28.6-5.6,47.6-48.3,29.7-73.7c2,13.9-6.6,16.4-16.4,22.7c10-11.2,2.4-33-11.7-39.5
	c17.5,39-27.6,31.3-49.6,28.6C185.2,27.3,167.8,23.5,160,35.9z"/>
<path class="st192" d="M144.6,43.9c3.8-0.3,7.6,0.5,11,2.2c4.1,2,8.3,3.9,11.7,6.8s7.5,8.1,6.6,11.5s-3,1.4-5.3,1.2
	c-4.1-0.2-8.8,0-12.5,1.7c-12.5,6.1-15.9,22.7-18,35.1c-0.5,2.7-0.3,6.4-2.4,8.6c-5.4-3.9-5.3-16.3-6.4-22.4
	c-2.4-12.5-2.9-29.8,5.9-40.2C137.6,45.7,141,44.1,144.6,43.9z"/>
<path class="st192" d="M275.4,17.1c0.3,1.6,0.4,3.1,0.3,4.7c1.2,4.9,2.5,9.7,1.9,15.2c-1,7-3.1,13.9-6.4,20.2
	c-4.4,8.1-10.3,16.8-19.3,20.5s-19,6.3-29.8,3.7s-18.8-7.8-28.5-12s-18.6-12-29.3-11.2c-1.4,0.1-2.8,0.4-4.2,0.8
	c3.4,4.1,9,5.6,13.9,7.8c6.5,2.8,12.5,6.5,18.1,10.8c5.9,4.7,11.9,9.8,19.3,12c11.2,3.4,23.4,3,34.7,0.8
	C274.4,85,298.9,39.1,275.4,17.1z"/>
<path class="st192" d="M164,58.3c-8.6,0.7-19.5,7.1-23.4,15.1c-5.6,11.2-3.6,23.4-3.6,35.4c0.7-2,0.7-4.6,1.2-6.4
	c2-12.2,5.4-29,18-35.1c3.6-1.7,8.3-1.9,12.5-1.7c2.2,0.2,4.6,1.4,5.3-1.2s-0.3-3.2-1.4-5.1C169.8,58.5,166.9,58.1,164,58.3z"/>
<path class="st201" d="M150.5,54.4c5.3-0.3,7.5-4.7,2-7.1s-12.4,1-15.4,6.1s-1.9,8.8-2.7,13.9C135.4,58.6,142.7,54.9,150.5,54.4z"/>
<path class="st201" d="M232.7,59.5c-11.2,5.1-19.3,1.9-29.8-2.7c-4.6-2-9.1-3.4-13.7-5.6c-8.8-3.9-17.6-8.3-27.3-3.9
	c-0.3-5.4,2.9-10.7,7.1-13.9c3.6-2.6,8-4,12.5-3.7c7.1,0.3,15.1,6.1,21.7,2.7c-3.7,3.2-7.5,4.9-12.4,4.4s-10.2-2.5-12.5,1.7
	c8.8-4.4,23.2,8,30.7,11c11.4,4.7,24.2,9,34.7-0.2C239.8,53.9,238.1,57.1,232.7,59.5z"/>
<path class="st202" d="M153.5,138.4c0,0,54.2,30.5,97.8,5.4c1.4,26.8-18.6,57.1-53.7,53.5C167.6,194.3,152,174.5,153.5,138.4z"/>
<path class="st203" d="M169.3,186.2c7.1,6.3,16.6,10,28.3,11.2s22.4-1.5,30.7-6.8c-8.1-9.3-10.7-12.5-27.6-12.7
	C178.3,177.9,175.2,183.2,169.3,186.2z"/>
<path class="st2" d="M153.5,138.4c-0.2,2.5-0.2,5.1,0,7.6c9.8,6.3,52,30.7,97.1,9c0.6-3.6,0.9-7.3,0.7-11
	C207.8,168.9,153.5,138.4,153.5,138.4z"/>
<path class="st204" d="M153.5,138.4c-0.2,2.4-0.2,4.9,0,7.3c5.1-5.8,20.8,7.3,49.6,9.8s44.6-9.8,47.6-0.8c0.6-3.6,0.8-7.2,0.7-10.8
	C207.8,168.9,153.5,138.4,153.5,138.4z"/>
<path class="st2" d="M168.5,185.4c7.3,6.8,16.9,10.8,29.1,12c14.2,1.5,26.1-2.7,34.9-9.8C205.7,197.4,175.1,184.2,168.5,185.4z"/>
<polygon class="st199" points="194.8,301.1 202.9,315 226.3,289.9 214.2,229.2 212.9,212.5 "/>
<polygon class="st192" points="189,219.8 174.3,283.3 197.3,310.9 221.7,286.3 210.9,220.4 "/>
<polygon class="st192" points="187.3,205.9 186.3,219.9 213.1,223.3 213.9,206.5 "/>
<polygon class="st205" points="211.9,226 210.9,220.4 189,219.8 188.1,223.5 "/>
<polygon class="st192" points="185.1,208.2 184.3,221.3 215.6,224.7 216.4,209.3 "/>
<path class="st195" d="M216.4,254.5l-29.8-25.2l-3.7,16.1l36.4,27.1L216.4,254.5z M180,258.9l-2,9l32.7,29.7l8.3-8.3L180,258.9z"/>
<path class="st206" d="M211.2,246.9c0,2-1.6,3.6-3.6,3.7l-25.9-1.4c-2-0.3-3.4-2.1-3.2-4.1l0,0c0-2,1.6-3.6,3.6-3.7l25.9,1.4
	C210,243.1,211.4,244.9,211.2,246.9L211.2,246.9z"/>
<path class="st207" d="M192.9,246c0,1.4-0.7,2.4-1.2,2.4l-8-0.5c-0.5,0-1-1.2-0.8-2.5l0,0c0-1.4,0.7-2.4,1.2-2.4l8,0.5
	C192.6,243.5,192.9,244.7,192.9,246L192.9,246z"/>
<path class="st208" d="M32.7,251.1c0,0,0.5,39,60.7,26.9c57.3-11.5,32.5-84.9-4.9-79.5L32.7,251.1z"/>
<path class="st209" d="M104.4,248.7c-4.9-6.6-32.7-8.8-59.3-9.3l-12.4,11.7c1.9,10.1,8.1,18.9,16.9,24.2c6.3-1,20-4.4,20.3-14.9
	C89,265.3,114.1,262.1,104.4,248.7z"/>
<path class="st207" d="M106.4,247.5c0.2,4.2-3,7.8-7.2,8c0,0-0.1,0-0.1,0L32.9,258c-4.2,0.2-7.8-3.1-8-7.4c0,0,0-0.1,0-0.1
	l-4.7-123.9c-0.2-4.2,3-7.8,7.2-8c0,0,0.1,0,0.1,0l66.2-2.5c4.2-0.2,7.8,3,8,7.2c0,0,0,0.1,0,0.1L106.4,247.5z"/>
<circle class="st210" cx="65.5" cy="244" r="7.6"/>
<path class="st207" d="M71.5,243.8c-0.2-3.4-3-6-6.4-5.9c-3.3,0.2-5.9,3-5.9,6.3c0.2,3.3,3,6,6.3,5.9c3.3,0,6-2.7,6-6
	C71.5,244,71.5,243.9,71.5,243.8z"/>
<path class="st192" d="M101.4,228.7c0.1,1.9-1.3,3.5-3.2,3.6c-0.1,0-0.1,0-0.2,0l-66.1,2.4c-1.9,0.1-3.5-1.3-3.6-3.2
	c0-0.1,0-0.1,0-0.2l-3.6-97.6c-0.1-1.9,1.3-3.5,3.2-3.6c0.1,0,0.1,0,0.2,0l66.1-2.4c1.9-0.1,3.5,1.3,3.6,3.2c0,0.1,0,0.1,0,0.2
	L101.4,228.7z"/>
<path class="st210" d="M67.3,123.2c0.1,0.9-0.6,1.8-1.5,1.9c-0.1,0-0.1,0-0.2,0l-9.1,0.3c-0.9,0.1-1.8-0.6-1.9-1.5
	c0-0.1,0-0.1,0-0.2l0,0c-0.1-0.9,0.6-1.8,1.5-1.9c0.1,0,0.1,0,0.2,0l9.1-0.3c0.9-0.1,1.8,0.6,1.9,1.5
	C67.3,123.1,67.3,123.1,67.3,123.2L67.3,123.2z"/>
<path class="st209" d="M61.5,233.6c-0.3-7.3-4.6-14.6-11.4-15.4c16.4-29.8-18.3-26.4-18.3-26.4l8.6,42.7L61.5,233.6z"/>
<path class="st208" d="M24.1,251.6l25.1-6.3c7.6-2.5,12.5-23.4,0.2-26.1s-33.7,4.7-38.1,6.4S-1.8,247,24.1,251.6z"/>
<path class="st208" d="M32.6,273.3c9.5,1.9,23,1.5,23,1.5c7.1-0.2,16.9-16.4,7.1-22s-30-5.1-34.2-4.9S10.9,268.9,32.6,273.3z"/>
<path class="st208" d="M17,224.5l23.9-6.1c7.3-2.4,11.9-23.2,0.2-25.9s-32.2,3.9-36.3,6.1S-7.8,219.8,17,224.5z"/>
<path class="st208" d="M127.3,237.9c-11.5-38.1,17.8-51.2-13.4-55.7c-25.4-3.7-16.4,42.4-5.9,50.3"/>
<image style="overflow:visible;" width="2364" height="2364" xlink:href="C7043F20.png"  transform="matrix(6.235261e-02 0 0 6.235261e-02 10.3992 362.8047)">
</image>
<path class="st211" d="M51,153.4l0.6,14.2l-14.2,0.6c-1.8,0.3-3.2,1.7-3.3,3.5l0.7,15.8c0.3,1.8,1.7,3.1,3.6,3.2l14.2-0.6l0.6,15
	c0.2,1.9,1.7,3.4,3.5,3.5l15.7-0.7c1.8-0.3,3.1-1.8,3.2-3.7L75,190.2l14.2-0.6c1.8-0.3,3.1-1.7,3.3-3.5l-0.7-15.7
	c-0.3-1.8-1.9-3.3-3.7-3.4l-14,0.6l-0.6-15.1c-0.3-1.9-1.8-3.4-3.6-3.4l-15.7,0.7C52.4,150,51,151.6,51,153.4z"/>
<path class="st212" d="M75.3,194.8c0.3-0.5,0.7-1.1,0.8-1.7c0.8-2.7,0.8-7.2-0.4-9.9c-0.5-1-1.2-1.8-2.1-2.4l-1.2-1
	c-0.5-0.4-1.6-1-2.2-1.4l-3.5-2.2c-0.3-0.2-0.6-0.3-0.9-0.5c-0.3-0.2-0.6-0.3-0.9-0.5l-2.6-1.6c-0.5-0.4-1.2-0.8-1.8-1.1l-0.9-0.6
	l-1.8-1.1c-0.3-0.2-0.6-0.3-0.9-0.6c-0.6-0.3-1.2-0.7-1.8-1.1c-0.3-0.3-1-0.6-1.3-0.9c-0.3-0.3-0.8-0.6-1.2-1
	c-0.3-0.3-0.5-0.5-0.7-0.8c-0.5-0.7-0.8-1.7-0.9-2.5c0-0.5-0.1-0.9-0.1-1.3c-0.5,0.8-0.9,1.7-1.1,2.6c-0.5,1.6-0.6,3.2-0.7,4.8
	c-0.1,1.9,0.2,3.8,0.9,5.6c0.4,0.9,1,1.7,1.7,2.4c0.3,0.3,0.6,0.5,0.9,0.7l0.1,0.1l0.6,0.3c0.2,0.1,0.4,0.3,0.5,0.4l4.5,2.8l2.3,1.4
	l1.1,0.7l5.6,3.5c1.3,0.8,2.5,1.6,3.8,2.4l1.4,0.9l0.3,0.2c0.8,0.5,1.4,1.2,1.9,1.9C75.2,193.7,75.3,194.2,75.3,194.8L75.3,194.8z"
	/>
<image style="overflow:visible;" width="2364" height="2364" xlink:href="C7043F20.png"  transform="matrix(1.438906e-02 0 0 1.438906e-02 221.321 221.0461)">
</image>
</svg>
