<svg id="Capa_1" data-name="Capa 1" xmlns="http://www.w3.org/2000/svg" xmlns:xlink="http://www.w3.org/1999/xlink" viewBox="0 0 360 538.58"><defs><style>.cls-1{fill:url(#Degradado_sin_nombre_5);}.cls-183,.cls-184,.cls-185,.cls-186,.cls-187,.cls-2{opacity:0.8;}.cls-200,.cls-210,.cls-3{fill:#fff;}.cls-4{fill:#fefefe;}.cls-5{fill:#fdfdfd;}.cls-6{fill:#fcfcfc;}.cls-7{fill:#fbfbfb;}.cls-10,.cls-11,.cls-12,.cls-13,.cls-14,.cls-15,.cls-16,.cls-7,.cls-8,.cls-9{opacity:0.99;}.cls-10,.cls-100,.cls-101,.cls-102,.cls-103,.cls-104,.cls-105,.cls-106,.cls-107,.cls-108,.cls-109,.cls-11,.cls-110,.cls-111,.cls-112,.cls-113,.cls-114,.cls-115,.cls-116,.cls-117,.cls-118,.cls-119,.cls-12,.cls-120,.cls-121,.cls-122,.cls-123,.cls-124,.cls-125,.cls-126,.cls-127,.cls-128,.cls-129,.cls-13,.cls-130,.cls-131,.cls-132,.cls-133,.cls-134,.cls-135,.cls-136,.cls-137,.cls-138,.cls-139,.cls-14,.cls-140,.cls-141,.cls-142,.cls-143,.cls-144,.cls-145,.cls-146,.cls-147,.cls-148,.cls-149,.cls-15,.cls-150,.cls-151,.cls-152,.cls-153,.cls-154,.cls-155,.cls-156,.cls-157,.cls-158,.cls-159,.cls-16,.cls-160,.cls-161,.cls-162,.cls-163,.cls-164,.cls-165,.cls-166,.cls-167,.cls-168,.cls-169,.cls-17,.cls-170,.cls-171,.cls-172,.cls-173,.cls-174,.cls-175,.cls-176,.cls-177,.cls-178,.cls-179,.cls-18,.cls-180,.cls-181,.cls-182,.cls-183,.cls-184,.cls-185,.cls-186,.cls-187,.cls-19,.cls-190,.cls-192,.cls-197,.cls-199,.cls-20,.cls-200,.cls-204,.cls-21,.cls-212,.cls-22,.cls-23,.cls-24,.cls-25,.cls-26,.cls-27,.cls-28,.cls-29,.cls-30,.cls-31,.cls-32,.cls-33,.cls-34,.cls-35,.cls-36,.cls-37,.cls-38,.cls-39,.cls-40,.cls-41,.cls-42,.cls-43,.cls-44,.cls-45,.cls-46,.cls-47,.cls-48,.cls-49,.cls-50,.cls-51,.cls-52,.cls-53,.cls-54,.cls-55,.cls-56,.cls-57,.cls-58,.cls-59,.cls-60,.cls-61,.cls-62,.cls-63,.cls-64,.cls-65,.cls-66,.cls-67,.cls-68,.cls-69,.cls-7,.cls-70,.cls-71,.cls-72,.cls-73,.cls-74,.cls-75,.cls-76,.cls-77,.cls-78,.cls-79,.cls-8,.cls-80,.cls-81,.cls-82,.cls-83,.cls-84,.cls-85,.cls-86,.cls-87,.cls-88,.cls-89,.cls-9,.cls-90,.cls-91,.cls-92,.cls-93,.cls-94,.cls-95,.cls-96,.cls-97,.cls-98,.cls-99{isolation:isolate;}.cls-8{fill:#fafafa;}.cls-9{fill:#f9f9f9;}.cls-10{fill:#f8f7f7;}.cls-11{fill:#f6f6f6;}.cls-12{fill:#f5f5f5;}.cls-13{fill:#f4f3f4;}.cls-14{fill:#f3f3f3;}.cls-15{fill:#f2f2f2;}.cls-16{fill:#f1f1f1;}.cls-17{fill:#f0f0f0;}.cls-17,.cls-18,.cls-19,.cls-20,.cls-21,.cls-22,.cls-23,.cls-24,.cls-25{opacity:0.98;}.cls-18{fill:#efefef;}.cls-19{fill:#efeeee;}.cls-20{fill:#eeeded;}.cls-21{fill:#ececec;}.cls-22{fill:#ebebeb;}.cls-23{fill:#eaeaea;}.cls-24{fill:#e9e9e9;}.cls-25{fill:#e9e8e8;}.cls-26{fill:#e8e7e7;}.cls-26,.cls-27,.cls-28,.cls-29,.cls-30,.cls-31,.cls-32,.cls-33,.cls-34,.cls-35{opacity:0.97;}.cls-27{fill:#e7e6e6;}.cls-28{fill:#e5e5e4;}.cls-29{fill:#e4e4e3;}.cls-30{fill:#e3e3e2;}.cls-31{fill:#e2e1e1;}.cls-32{fill:#e1e1e1;}.cls-33{fill:#e0e0e0;}.cls-34{fill:#dfdfdf;}.cls-35{fill:#dedede;}.cls-36{fill:#ddd;}.cls-36,.cls-37,.cls-38,.cls-39,.cls-40,.cls-41,.cls-42,.cls-43,.cls-44{opacity:0.96;}.cls-37{fill:#dcdcdc;}.cls-38{fill:#dbdbdb;}.cls-39{fill:#dadada;}.cls-40{fill:#d9d9d9;}.cls-41{fill:#d8d8d8;}.cls-42{fill:#d7d8d8;}.cls-43{fill:#d6d7d7;}.cls-44{fill:#d6d6d6;}.cls-45{fill:#d5d5d4;}.cls-45,.cls-46,.cls-47,.cls-48,.cls-49,.cls-50,.cls-51,.cls-52,.cls-53{opacity:0.95;}.cls-46{fill:#d3d3d3;}.cls-47{fill:#d2d2d2;}.cls-48{fill:#d1d1d1;}.cls-49{fill:#d0d0d0;}.cls-50{fill:#cfcfcf;}.cls-51{fill:#cfcece;}.cls-52{fill:#cecdcc;}.cls-53{fill:#cdcccc;}.cls-54{fill:#cccccb;}.cls-54,.cls-55,.cls-56,.cls-57,.cls-58,.cls-59,.cls-60,.cls-61,.cls-62,.cls-63{opacity:0.94;}.cls-55{fill:#cbcaca;}.cls-56{fill:#cac9c9;}.cls-57{fill:#c9c9c9;}.cls-58{fill:#c8c7c7;}.cls-59{fill:#c7c6c6;}.cls-60{fill:#c6c6c6;}.cls-203,.cls-61{fill:#c5c5c4;}.cls-62{fill:#c4c4c3;}.cls-63{fill:#c3c2c2;}.cls-64{fill:#c2c1c1;}.cls-64,.cls-65,.cls-66,.cls-67,.cls-68,.cls-69,.cls-70,.cls-71,.cls-72{opacity:0.93;}.cls-65{fill:#c0c0bf;}.cls-66{fill:#bfbebf;}.cls-67{fill:#bebdbe;}.cls-68{fill:#bdbdbc;}.cls-69{fill:#bcbcbb;}.cls-70{fill:#bbb;}.cls-71{fill:#bababa;}.cls-72{fill:#b9b9b9;}.cls-73{fill:#b8b8b8;}.cls-73,.cls-74,.cls-75,.cls-76,.cls-77,.cls-78,.cls-79,.cls-80,.cls-81,.cls-82{opacity:0.92;}.cls-74{fill:#b8b7b7;}.cls-75{fill:#b7b7b6;}.cls-76{fill:#b6b6b5;}.cls-77{fill:#b5b4b4;}.cls-78{fill:#b4b4b4;}.cls-79{fill:#b3b2b2;}.cls-80{fill:#b2b2b2;}.cls-81{fill:#b0b0b0;}.cls-82{fill:#b0b0af;}.cls-83{fill:#aeaeaf;}.cls-83,.cls-84,.cls-85,.cls-86,.cls-87,.cls-88,.cls-89,.cls-90{opacity:0.91;}.cls-84{fill:#aeadad;}.cls-85{fill:#acacac;}.cls-86{fill:#ababab;}.cls-87{fill:#a9a9aa;}.cls-88{fill:#a8a8a8;}.cls-89{fill:#a7a6a6;}.cls-90{fill:#a6a6a6;}.cls-91{fill:#a5a4a4;}.cls-91,.cls-92,.cls-93,.cls-94,.cls-95,.cls-96,.cls-97,.cls-98,.cls-99{opacity:0.9;}.cls-92{fill:#a3a3a2;}.cls-93{fill:#a2a2a1;}.cls-94{fill:#a2a1a1;}.cls-95{fill:#a1a0a0;}.cls-96{fill:#9f9f9f;}.cls-97{fill:#9e9e9e;}.cls-98{fill:#9d9d9d;}.cls-99{fill:#9d9d9c;}.cls-100{fill:#9c9b9b;}.cls-100,.cls-101,.cls-102,.cls-103,.cls-104,.cls-105,.cls-106,.cls-107,.cls-108{opacity:0.89;}.cls-101{fill:#9b9b9a;}.cls-102{fill:#9a9999;}.cls-103{fill:#989999;}.cls-104{fill:#989898;}.cls-105{fill:#979797;}.cls-106{fill:#969696;}.cls-107{fill:#949494;}.cls-108{fill:#939393;}.cls-109{fill:#919292;}.cls-109,.cls-110,.cls-111,.cls-112,.cls-113,.cls-114,.cls-115,.cls-116,.cls-117,.cls-118{opacity:0.88;}.cls-110{fill:#919191;}.cls-111{fill:#909090;}.cls-112{fill:#8f8f8f;}.cls-113{fill:#8e8e8e;}.cls-114{fill:#8c8c8d;}.cls-115{fill:#8c8c8c;}.cls-116{fill:#8b8b8b;}.cls-117{fill:#8a8a8a;}.cls-118{fill:#888989;}.cls-119{fill:#878889;}.cls-119,.cls-120,.cls-121,.cls-122,.cls-123,.cls-124,.cls-125,.cls-126{opacity:0.87;}.cls-120{fill:#878787;}.cls-121{fill:#868686;}.cls-122{fill:#858585;}.cls-123{fill:#848484;}.cls-124{fill:#828383;}.cls-125{fill:#818282;}.cls-126{fill:#808181;}.cls-127{fill:#7f8080;}.cls-127,.cls-128,.cls-129,.cls-130,.cls-131,.cls-132,.cls-133,.cls-134,.cls-135,.cls-136{opacity:0.86;}.cls-128{fill:#7e7f7f;}.cls-129{fill:#7d7d7e;}.cls-130{fill:#7c7c7d;}.cls-131{fill:#7c7c7c;}.cls-132{fill:#7a7b7b;}.cls-133{fill:#79797a;}.cls-134{fill:#797879;}.cls-135{fill:#777778;}.cls-136,.cls-137{fill:#767676;}.cls-137,.cls-138,.cls-139,.cls-140,.cls-141,.cls-142,.cls-143,.cls-144,.cls-145{opacity:0.85;}.cls-138{fill:#757575;}.cls-139{fill:#747474;}.cls-140{fill:#737373;}.cls-141{fill:#727272;}.cls-142,.cls-209{fill:#717171;}.cls-143{fill:#707070;}.cls-144{fill:#6f6f6e;}.cls-145{fill:#6e6e6e;}.cls-146{fill:#6d6d6d;}.cls-146,.cls-147,.cls-148,.cls-149,.cls-150,.cls-151,.cls-152,.cls-153,.cls-154{opacity:0.84;}.cls-147{fill:#6d6d6c;}.cls-148{fill:#6b6b6b;}.cls-149{fill:#6a6a6a;}.cls-150{fill:#6a6a69;}.cls-151{fill:#686868;}.cls-152{fill:#676767;}.cls-153{fill:#666;}.cls-154{fill:#656565;}.cls-155{fill:#646464;}.cls-155,.cls-156,.cls-157,.cls-158,.cls-159,.cls-160,.cls-161,.cls-162,.cls-163,.cls-164{opacity:0.83;}.cls-156{fill:#636363;}.cls-157{fill:#626262;}.cls-158{fill:#626161;}.cls-159{fill:#60605f;}.cls-160{fill:#5f5f5f;}.cls-161{fill:#5e5e5e;}.cls-162{fill:#5d5d5d;}.cls-163{fill:#5c5c5c;}.cls-164{fill:#5b5b5b;}.cls-165{fill:#5b5a5a;}.cls-165,.cls-166,.cls-167,.cls-168,.cls-169,.cls-170,.cls-171,.cls-172{opacity:0.82;}.cls-166{fill:#5a5959;}.cls-167{fill:#585858;}.cls-168{fill:#575757;}.cls-169{fill:#565656;}.cls-170{fill:#555454;}.cls-171{fill:#535353;}.cls-172{fill:#525252;}.cls-173{fill:#515151;}.cls-173,.cls-174,.cls-175,.cls-176,.cls-177,.cls-178,.cls-179,.cls-180,.cls-181,.cls-182{opacity:0.81;}.cls-174{fill:#50504f;}.cls-175{fill:#4f4f4f;}.cls-176{fill:#4e4d4d;}.cls-177{fill:#4d4d4d;}.cls-178{fill:#4d4c4c;}.cls-179{fill:#4b4a4b;}.cls-180{fill:#4a4a4a;}.cls-181{fill:#494949;}.cls-182{fill:#484848;}.cls-183{fill:#474647;}.cls-184{fill:#464545;}.cls-185{fill:#454545;}.cls-186{fill:#444;}.cls-187,.cls-208{fill:#434342;}.cls-188,.cls-211{fill:#3f497e;}.cls-189{fill:url(#Degradado_sin_nombre_5-2);}.cls-190,.cls-192,.cls-193,.cls-197,.cls-199,.cls-204{fill:#010101;}.cls-190{opacity:0.12;}.cls-191{fill:#5a6eb3;}.cls-192,.cls-200{opacity:0.2;}.cls-194{fill:url(#Degradado_sin_nombre_5-3);}.cls-195{fill:url(#Degradado_sin_nombre_5-4);}.cls-196{fill:#e88e48;}.cls-197{opacity:0.35;}.cls-198{fill:url(#Degradado_sin_nombre_5-5);}.cls-199{opacity:0.1;}.cls-201{fill:#41120f;}.cls-202{fill:#b21917;}.cls-204{opacity:0.36;}.cls-205{fill:#3f3931;}.cls-206{fill:#878482;}.cls-207{fill:#f49e64;}.cls-210,.cls-211{fill-rule:evenodd;}</style><linearGradient id="Degradado_sin_nombre_5" x1="3028.91" y1="4451.55" x2="3073.61" y2="4451.55" gradientTransform="translate(-2930.82 -4224.6)" gradientUnits="userSpaceOnUse"><stop offset="0.08" stop-color="#bdbdbc"/><stop offset="0.13" stop-color="#c3c2c2"/><stop offset="0.37" stop-color="#d7d8d8"/><stop offset="0.53" stop-color="#dfdfdf"/><stop offset="1" stop-color="#cecdcc"/></linearGradient><linearGradient id="Degradado_sin_nombre_5-2" x1="3059.36" y1="4487.74" x2="3194.91" y2="4487.74" xlink:href="#Degradado_sin_nombre_5"/><linearGradient id="Degradado_sin_nombre_5-3" x1="130.11" y1="-215.62" x2="201.57" y2="-215.62" gradientTransform="matrix(1, 0, 0, -1, -0.02, 290.2)" xlink:href="#Degradado_sin_nombre_5"/><linearGradient id="Degradado_sin_nombre_5-4" x1="230.08" y1="-215.62" x2="301.54" y2="-215.62" gradientTransform="matrix(1, 0, 0, -1, -0.02, 290.2)" xlink:href="#Degradado_sin_nombre_5"/><linearGradient id="Degradado_sin_nombre_5-5" x1="4801.67" y1="4683.63" x2="4872.45" y2="4683.63" gradientTransform="matrix(-0.98, -0.17, -0.17, 0.98, 5870.96, -3481.8)" xlink:href="#Degradado_sin_nombre_5"/></defs><title>nosotros</title><polygon class="cls-1" points="136.25 196.4 98.09 232.35 110.91 257.49 142.91 210.84 136.25 196.4"/><g class="cls-2"><ellipse class="cls-3" cx="217.76" cy="520.21" rx="139.24" ry="14.44"/><ellipse class="cls-3" cx="217.76" cy="520.21" rx="138.95" ry="14.44"/><ellipse class="cls-4" cx="217.76" cy="520.21" rx="138.55" ry="14.44"/><ellipse class="cls-5" cx="217.76" cy="520.21" rx="138.26" ry="14.34"/><ellipse class="cls-6" cx="217.76" cy="520.21" rx="138.06" ry="14.34"/><ellipse class="cls-7" cx="217.76" cy="520.21" rx="137.77" ry="14.34"/><ellipse class="cls-8" cx="217.76" cy="520.21" rx="137.48" ry="14.34"/><ellipse class="cls-9" cx="217.76" cy="520.21" rx="137.09" ry="14.34"/><ellipse class="cls-10" cx="217.76" cy="520.21" rx="136.79" ry="14.14"/><ellipse class="cls-11" cx="217.76" cy="520.21" rx="136.4" ry="14.14"/><ellipse class="cls-12" cx="217.76" cy="520.21" rx="136.11" ry="14.14"/><ellipse class="cls-13" cx="217.76" cy="520.21" rx="135.81" ry="14.14"/><ellipse class="cls-14" cx="217.76" cy="520.21" rx="135.42" ry="14.14"/><ellipse class="cls-15" cx="217.76" cy="520.21" rx="135.13" ry="14.14"/><ellipse class="cls-16" cx="217.76" cy="520.21" rx="134.84" ry="13.95"/><ellipse class="cls-17" cx="217.76" cy="520.21" rx="134.64" ry="13.95"/><ellipse class="cls-18" cx="217.76" cy="520.21" rx="134.25" ry="13.95"/><ellipse class="cls-19" cx="217.76" cy="520.21" rx="133.95" ry="13.95"/><ellipse class="cls-20" cx="217.76" cy="520.21" rx="133.66" ry="13.95"/><ellipse class="cls-21" cx="217.76" cy="520.21" rx="133.27" ry="13.85"/><ellipse class="cls-22" cx="217.76" cy="520.21" rx="132.98" ry="13.85"/><ellipse class="cls-23" cx="217.76" cy="520.21" rx="132.59" ry="13.85"/><ellipse class="cls-24" cx="217.76" cy="520.21" rx="132.29" ry="13.85"/><ellipse class="cls-25" cx="217.76" cy="520.21" rx="132" ry="13.85"/><ellipse class="cls-26" cx="217.76" cy="520.21" rx="131.61" ry="13.65"/><ellipse class="cls-27" cx="217.76" cy="520.21" rx="131.31" ry="13.65"/><ellipse class="cls-28" cx="217.76" cy="520.21" rx="131.12" ry="13.65"/><ellipse class="cls-29" cx="217.76" cy="520.21" rx="130.82" ry="13.65"/><ellipse class="cls-30" cx="217.76" cy="520.21" rx="130.43" ry="13.46"/><ellipse class="cls-31" cx="217.76" cy="520.21" rx="130.14" ry="13.46"/><ellipse class="cls-32" cx="217.76" cy="520.21" rx="129.85" ry="13.46"/><ellipse class="cls-33" cx="217.76" cy="520.21" rx="129.45" ry="13.46"/><ellipse class="cls-34" cx="217.76" cy="520.21" rx="129.16" ry="13.46"/><ellipse class="cls-35" cx="217.76" cy="520.21" rx="128.87" ry="13.36"/><ellipse class="cls-36" cx="217.76" cy="520.21" rx="128.48" ry="13.36"/><ellipse class="cls-37" cx="217.76" cy="520.21" rx="128.18" ry="13.36"/><ellipse class="cls-38" cx="217.76" cy="520.21" rx="127.79" ry="13.36"/><ellipse class="cls-39" cx="217.76" cy="520.21" rx="127.5" ry="13.36"/><ellipse class="cls-40" cx="217.76" cy="520.21" rx="127.3" ry="13.36"/><ellipse class="cls-41" cx="217.76" cy="520.21" rx="127.01" ry="13.16"/><ellipse class="cls-42" cx="217.76" cy="520.21" rx="126.71" ry="13.16"/><ellipse class="cls-43" cx="217.76" cy="520.21" rx="126.32" ry="13.16"/><ellipse class="cls-44" cx="217.76" cy="520.21" rx="126.03" ry="13.16"/><ellipse class="cls-45" cx="217.76" cy="520.21" rx="125.64" ry="13.16"/><ellipse class="cls-46" cx="217.76" cy="520.21" rx="125.34" ry="12.96"/><ellipse class="cls-47" cx="217.76" cy="520.21" rx="125.05" ry="12.96"/><ellipse class="cls-48" cx="217.76" cy="520.21" rx="124.66" ry="12.96"/><ellipse class="cls-49" cx="217.76" cy="520.21" rx="124.37" ry="12.96"/><ellipse class="cls-50" cx="217.76" cy="520.21" rx="123.97" ry="12.96"/><ellipse class="cls-51" cx="217.76" cy="520.21" rx="123.88" ry="12.77"/><ellipse class="cls-52" cx="217.76" cy="520.21" rx="123.49" ry="12.77"/><ellipse class="cls-53" cx="217.76" cy="520.21" rx="123.19" ry="12.77"/><ellipse class="cls-54" cx="217.76" cy="520.21" rx="122.9" ry="12.77"/><ellipse class="cls-55" cx="217.76" cy="520.21" rx="122.51" ry="12.77"/><ellipse class="cls-56" cx="217.76" cy="520.21" rx="122.21" ry="12.67"/><ellipse class="cls-57" cx="217.76" cy="520.21" rx="121.82" ry="12.67"/><ellipse class="cls-58" cx="217.76" cy="520.21" rx="121.53" ry="12.67"/><ellipse class="cls-59" cx="217.76" cy="520.21" rx="121.23" ry="12.67"/><path class="cls-60" d="M338.6,520.21c0,7-54.2,12.67-120.84,12.67S96.92,527.19,96.92,520.21s54.21-12.67,120.84-12.67S338.6,513.24,338.6,520.21Z"/><ellipse class="cls-61" cx="217.76" cy="520.21" rx="120.55" ry="12.47"/><ellipse class="cls-62" cx="217.76" cy="520.21" rx="120.35" ry="12.47"/><ellipse class="cls-63" cx="217.76" cy="520.21" rx="120.06" ry="12.47"/><ellipse class="cls-64" cx="217.76" cy="520.21" rx="119.67" ry="12.47"/><ellipse class="cls-65" cx="217.76" cy="520.21" rx="119.38" ry="12.47"/><ellipse class="cls-66" cx="217.76" cy="520.21" rx="119.08" ry="12.28"/><ellipse class="cls-67" cx="217.76" cy="520.21" rx="118.69" ry="12.28"/><ellipse class="cls-68" cx="217.76" cy="520.21" rx="118.4" ry="12.28"/><ellipse class="cls-69" cx="217.76" cy="520.21" rx="118.01" ry="12.28"/><ellipse class="cls-70" cx="217.76" cy="520.21" rx="117.71" ry="12.28"/><ellipse class="cls-71" cx="217.76" cy="520.21" rx="117.42" ry="12.18"/><ellipse class="cls-72" cx="217.76" cy="520.21" rx="117.03" ry="12.18"/><ellipse class="cls-73" cx="217.76" cy="520.21" rx="116.73" ry="12.18"/><ellipse class="cls-74" cx="217.76" cy="520.21" rx="116.54" ry="12.18"/><ellipse class="cls-75" cx="217.76" cy="520.21" rx="116.24" ry="12.18"/><ellipse class="cls-76" cx="217.76" cy="520.21" rx="115.85" ry="11.98"/><ellipse class="cls-77" cx="217.76" cy="520.21" rx="115.56" ry="11.98"/><ellipse class="cls-78" cx="217.76" cy="520.21" rx="115.27" ry="11.98"/><ellipse class="cls-79" cx="217.76" cy="520.21" rx="114.87" ry="11.98"/><ellipse class="cls-80" cx="217.76" cy="520.21" rx="114.58" ry="11.98"/><path class="cls-81" d="M332,520.21c0,6.68-51.27,11.79-114.19,11.79s-114.19-5.31-114.19-11.79,51.08-11.78,114.19-11.78S332,513.53,332,520.21Z"/><ellipse class="cls-82" cx="217.76" cy="520.21" rx="113.9" ry="11.79"/><ellipse class="cls-83" cx="217.76" cy="520.21" rx="113.6" ry="11.79"/><ellipse class="cls-84" cx="217.76" cy="520.21" rx="113.21" ry="11.79"/><path class="cls-85" d="M330.87,520.21c0,6.48-50.58,11.79-113.11,11.79s-112.92-5.5-112.92-11.79S155.43,508.43,218,508.43,330.87,513.53,330.87,520.21Z"/><path class="cls-86" d="M330.48,520.21c0,6.48-50.39,11.69-112.72,11.69S105,526.69,105,520.21s50.39-11.68,112.72-11.68S330.48,513.73,330.48,520.21Z"/><ellipse class="cls-87" cx="217.76" cy="520.21" rx="112.43" ry="11.69"/><ellipse class="cls-88" cx="217.76" cy="520.21" rx="112.04" ry="11.69"/><ellipse class="cls-88" cx="217.76" cy="520.21" rx="111.74" ry="11.69"/><ellipse class="cls-89" cx="217.76" cy="520.21" rx="111.45" ry="11.69"/><ellipse class="cls-90" cx="217.76" cy="520.21" rx="111.06" ry="11.49"/><ellipse class="cls-91" cx="217.76" cy="520.21" rx="110.76" ry="11.49"/><ellipse class="cls-91" cx="217.76" cy="520.21" rx="110.37" ry="11.49"/><ellipse class="cls-92" cx="217.76" cy="520.21" rx="110.08" ry="11.49"/><path class="cls-93" d="M327.65,520.21c0,6.29-49.22,11.49-109.79,11.49s-109.79-5.2-109.79-11.49,49.22-11.49,109.79-11.49S327.65,513.93,327.65,520.21Z"/><path class="cls-94" d="M327.35,520.21c0,6.29-49.12,11.3-109.59,11.3s-109.59-5.21-109.59-11.3,49.12-11.49,109.59-11.49S327.35,513.93,327.35,520.21Z"/><ellipse class="cls-95" cx="217.76" cy="520.21" rx="109.3" ry="11.29"/><ellipse class="cls-96" cx="217.76" cy="520.21" rx="108.91" ry="11.29"/><ellipse class="cls-97" cx="217.76" cy="520.21" rx="108.61" ry="11.29"/><ellipse class="cls-98" cx="217.76" cy="520.21" rx="108.22" ry="11.29"/><ellipse class="cls-99" cx="217.76" cy="520.21" rx="107.93" ry="11.29"/><ellipse class="cls-100" cx="217.76" cy="520.21" rx="107.63" ry="11.2"/><ellipse class="cls-101" cx="217.76" cy="520.21" rx="107.24" ry="11.2"/><ellipse class="cls-102" cx="217.76" cy="520.21" rx="106.95" ry="11.2"/><ellipse class="cls-103" cx="217.76" cy="520.21" rx="106.56" ry="11.2"/><path class="cls-104" d="M324.22,520.21c0,6.19-47.55,11-106.26,11s-106.27-5-106.27-11,47.56-11,106.27-11S324.22,514,324.22,520.21Z"/><ellipse class="cls-105" cx="217.76" cy="520.21" rx="105.97" ry="11"/><ellipse class="cls-106" cx="217.76" cy="520.21" rx="105.77" ry="11"/><path class="cls-107" d="M323.24,520.21c0,6-47.26,11-105.48,11s-105.48-5-105.48-11,47.26-11,105.48-11S323.24,514,323.24,520.21Z"/><path class="cls-108" d="M322.85,520.21c0,6-47.06,11-105.09,11s-105.09-4.81-105.09-11,47.07-11,105.09-11S322.85,514,322.85,520.21Z"/><path class="cls-109" d="M322.56,520.21c0,6-47,10.81-104.8,10.81S113,526.2,113,520.21s47-10.8,104.79-10.8S322.56,514,322.56,520.21Z"/><ellipse class="cls-110" cx="217.76" cy="520.21" rx="104.4" ry="10.8"/><ellipse class="cls-111" cx="217.76" cy="520.21" rx="104.11" ry="10.8"/><ellipse class="cls-112" cx="217.76" cy="520.21" rx="103.82" ry="10.8"/><ellipse class="cls-113" cx="217.76" cy="520.21" rx="103.43" ry="10.8"/><path class="cls-114" d="M320.89,520.21c0,6-46.28,10.81-103.13,10.81s-103.13-4.82-103.13-10.81,46.28-10.8,103.13-10.8S320.89,514.22,320.89,520.21Z"/><ellipse class="cls-115" cx="217.76" cy="520.21" rx="102.84" ry="10.61"/><ellipse class="cls-116" cx="217.76" cy="520.21" rx="102.45" ry="10.61"/><ellipse class="cls-117" cx="217.76" cy="520.21" rx="102.25" ry="10.61"/><path class="cls-118" d="M319.72,520.21c0,5.8-45.6,10.61-102,10.61s-102-4.81-102-10.61,45.6-10.6,102-10.6S319.72,514.22,319.72,520.21Z"/><path class="cls-119" d="M319.43,520.21c0,5.8-45.41,10.61-101.67,10.61S116.1,526.2,116.1,520.21s45.4-10.6,101.66-10.6S319.43,514.22,319.43,520.21Z"/><path class="cls-120" d="M319,520.21c0,5.8-45.4,10.51-101.27,10.51s-101.27-4.61-101.27-10.51,45.3-10.51,101.27-10.51S319,514.42,319,520.21Z"/><ellipse class="cls-121" cx="217.76" cy="520.21" rx="100.98" ry="10.51"/><ellipse class="cls-121" cx="217.76" cy="520.21" rx="100.59" ry="10.51"/><ellipse class="cls-122" cx="217.76" cy="520.21" rx="100.29" ry="10.51"/><ellipse class="cls-123" cx="217.76" cy="520.21" rx="100" ry="10.51"/><path class="cls-124" d="M317.37,520.21c0,5.7-44.62,10.31-99.61,10.31s-99.61-4.61-99.61-10.31,44.62-10.31,99.61-10.31S317.37,514.42,317.37,520.21Z"/><ellipse class="cls-125" cx="217.76" cy="520.21" rx="99.32" ry="10.31"/><ellipse class="cls-126" cx="217.76" cy="520.21" rx="99.02" ry="10.31"/><path class="cls-127" d="M316.59,520.21c0,5.7-44.23,10.31-98.83,10.31s-98.83-4.61-98.83-10.31,44.23-10.31,98.83-10.31S316.59,514.42,316.59,520.21Z"/><path class="cls-128" d="M316.2,520.21c0,5.7-44.13,10.12-98.44,10.12s-98.43-4.62-98.43-10.12,44.13-10.11,98.43-10.11S316.2,514.61,316.2,520.21Z"/><path class="cls-129" d="M315.9,520.21c0,5.7-43.93,10.12-98.14,10.12s-98.14-4.52-98.14-10.12,43.93-10.11,98.14-10.11S315.9,514.61,315.9,520.21Z"/><ellipse class="cls-130" cx="217.76" cy="520.21" rx="97.85" ry="10.12"/><path class="cls-131" d="M315.22,520.21c0,5.7-43.64,10.12-97.46,10.12s-97.46-4.52-97.46-10.12,43.64-10.11,97.46-10.11S315.22,514.61,315.22,520.21Z"/><path class="cls-132" d="M314.93,520.21c0,5.7-43.45,10.12-97.17,10.12s-97.16-4.52-97.16-10.12S164,510.1,217.76,510.1,314.93,514.61,314.93,520.21Z"/><path class="cls-133" d="M314.63,520.21c0,5.5-43.25,10-96.87,10s-96.87-4.52-96.87-10,43.45-10,96.87-10S314.63,514.61,314.63,520.21Z"/><path class="cls-134" d="M314.24,520.21c0,5.5-43.25,10-96.48,10s-96.48-4.52-96.48-10,43.25-10,96.48-10S314.24,514.61,314.24,520.21Z"/><ellipse class="cls-135" cx="217.76" cy="520.21" rx="96.19" ry="10.02"/><ellipse class="cls-136" cx="217.76" cy="520.21" rx="95.79" ry="10.02"/><ellipse class="cls-137" cx="217.76" cy="520.21" rx="95.5" ry="10.02"/><path class="cls-138" d="M313.07,520.21c0,5.5-42.57,10-95.21,10s-95.21-4.52-95.21-10,42.57-10,95.21-10S313.07,514.71,313.07,520.21Z"/><path class="cls-139" d="M312.77,520.21c0,5.5-42.46,9.82-95,9.82s-95-4.51-95-9.82,42.47-9.82,95-9.82S312.77,514.71,312.77,520.21Z"/><ellipse class="cls-140" cx="217.76" cy="520.21" rx="94.62" ry="9.82"/><path class="cls-141" d="M312.09,520.21c0,5.5-42.27,9.82-94.33,9.82s-94.33-4.32-94.33-9.82,42.28-9.82,94.33-9.82S312.09,514.71,312.09,520.21Z"/><path class="cls-142" d="M311.79,520.21c0,5.5-42.07,9.82-94,9.82s-94-4.32-94-9.82,42.07-9.82,94-9.82S311.79,514.71,311.79,520.21Z"/><path class="cls-143" d="M311.4,520.21c0,5.31-42,9.82-93.64,9.82s-93.64-4.32-93.64-9.82,42-9.82,93.64-9.82S311.4,514.71,311.4,520.21Z"/><path class="cls-144" d="M311.11,520.21c0,5.31-41.78,9.63-93.35,9.63s-93.35-4.32-93.35-9.63,41.78-9.62,93.35-9.62S311.11,514.71,311.11,520.21Z"/><ellipse class="cls-145" cx="217.76" cy="520.21" rx="93.05" ry="9.62"/><ellipse class="cls-146" cx="217.76" cy="520.21" rx="92.66" ry="9.62"/><ellipse class="cls-147" cx="217.76" cy="520.21" rx="92.37" ry="9.62"/><path class="cls-148" d="M309.74,520.21c0,5.31-41.29,9.63-92,9.63s-92-4.32-92-9.63,41.3-9.62,92-9.62S309.74,514.91,309.74,520.21Z"/><path class="cls-149" d="M309.64,520.21c0,5.31-41.1,9.53-91.68,9.53s-91.69-4.32-91.69-9.53,41.1-9.52,91.69-9.52S309.64,514.91,309.64,520.21Z"/><ellipse class="cls-150" cx="217.76" cy="520.21" rx="91.49" ry="9.53"/><ellipse class="cls-151" cx="217.76" cy="520.21" rx="91.2" ry="9.53"/><path class="cls-152" d="M308.66,520.21c0,5.21-40.6,9.53-90.9,9.53s-90.9-4.13-90.9-9.53,40.61-9.52,90.9-9.52S308.66,514.91,308.66,520.21Z"/><path class="cls-153" d="M308.27,520.21c0,5.21-40.41,9.53-90.51,9.53s-90.51-4.13-90.51-9.53,40.41-9.52,90.51-9.52S308.27,514.91,308.27,520.21Z"/><path class="cls-154" d="M308,520.21c0,5.21-40.41,9.33-90.22,9.33s-90.22-4.12-90.22-9.33,40.32-9.33,90.22-9.33S308,514.91,308,520.21Z"/><ellipse class="cls-155" cx="217.76" cy="520.21" rx="89.83" ry="9.33"/><path class="cls-156" d="M307.29,520.21c0,5.21-40.12,9.33-89.53,9.33s-89.53-4.12-89.53-9.33,40.12-9.33,89.53-9.33S307.29,514.91,307.29,520.21Z"/><path class="cls-157" d="M307,520.21c0,5.21-39.92,9.33-89.24,9.33s-89.24-4.12-89.24-9.33,39.93-9.33,89.24-9.33S307,515.11,307,520.21Z"/><path class="cls-158" d="M306.61,520.21c0,5.21-39.83,9.33-88.85,9.33s-88.85-4.12-88.85-9.33,39.83-9.33,88.85-9.33S306.61,515.11,306.61,520.21Z"/><path class="cls-159" d="M306.31,520.21c0,5.21-39.62,9.14-88.55,9.14s-88.55-4.13-88.55-9.14,39.63-9.13,88.55-9.13S306.31,515.11,306.31,520.21Z"/><ellipse class="cls-160" cx="217.76" cy="520.21" rx="88.16" ry="9.13"/><ellipse class="cls-161" cx="217.76" cy="520.21" rx="88.06" ry="9.13"/><path class="cls-162" d="M305.43,520.21c0,5-39.33,9.14-87.67,9.14s-87.67-4.13-87.67-9.14,39.33-9.13,87.67-9.13S305.43,515.11,305.43,520.21Z"/><path class="cls-163" d="M305.14,520.21c0,5-39.14,9.14-87.38,9.14s-87.38-4-87.38-9.14,39.14-9.13,87.38-9.13S305.14,515.11,305.14,520.21Z"/><path class="cls-164" d="M304.85,520.21c0,5-39,8.94-87.09,8.94s-87.08-4-87.08-8.94,38.94-8.93,87.08-8.93S304.85,515.11,304.85,520.21Z"/><path class="cls-165" d="M304.46,520.21c0,5-38.75,8.94-86.7,8.94s-86.69-4-86.69-8.94,38.75-8.93,86.69-8.93S304.46,515.2,304.46,520.21Z"/><path class="cls-166" d="M304.16,520.21c0,5-38.65,8.94-86.4,8.94s-86.4-4-86.4-8.94,38.65-8.93,86.4-8.93S304.16,515.2,304.16,520.21Z"/><path class="cls-167" d="M303.77,520.21c0,5-38.45,8.94-86,8.94s-86-4-86-8.94,38.46-8.93,86-8.93S303.77,515.2,303.77,520.21Z"/><path class="cls-168" d="M303.48,520.21c0,5-38.46,8.94-85.72,8.94s-85.71-4-85.71-8.94,38.45-8.93,85.71-8.93S303.48,515.2,303.48,520.21Z"/><path class="cls-169" d="M303.18,520.21c0,5-38.26,8.84-85.42,8.84s-85.42-4-85.42-8.84,38.26-8.84,85.42-8.84S303.18,515.2,303.18,520.21Z"/><path class="cls-170" d="M302.79,520.21c0,4.82-38.16,8.84-85,8.84s-85-4-85-8.84,38.16-8.84,85-8.84S302.79,515.2,302.79,520.21Z"/><ellipse class="cls-170" cx="217.76" cy="520.21" rx="84.74" ry="8.84"/><ellipse class="cls-171" cx="217.76" cy="520.21" rx="84.35" ry="8.84"/><path class="cls-172" d="M302,520.21c0,4.82-37.67,8.84-84.25,8.84s-84.25-4-84.25-8.84,37.68-8.84,84.25-8.84S302,515.2,302,520.21Z"/><path class="cls-173" d="M301.62,520.21c0,4.82-37.48,8.65-83.86,8.65S133.9,525,133.9,520.21s37.48-8.64,83.86-8.64S301.62,515.4,301.62,520.21Z"/><path class="cls-174" d="M301.32,520.21c0,4.82-37.47,8.65-83.56,8.65S134.2,525,134.2,520.21s37.47-8.64,83.56-8.64S301.32,515.4,301.32,520.21Z"/><path class="cls-175" d="M301,520.21c0,4.82-37.28,8.65-83.27,8.65s-83.27-3.84-83.27-8.65,37.28-8.64,83.27-8.64S301,515.4,301,520.21Z"/><path class="cls-176" d="M300.64,520.21c0,4.82-37.18,8.65-82.88,8.65s-82.88-3.84-82.88-8.65,37.19-8.64,82.88-8.64S300.64,515.4,300.64,520.21Z"/><path class="cls-177" d="M300.35,520.21c0,4.82-37,8.65-82.59,8.65s-82.58-3.84-82.58-8.65,37-8.64,82.58-8.64S300.35,515.4,300.35,520.21Z"/><path class="cls-178" d="M300,520.21c0,4.62-36.79,8.45-82.19,8.45s-82.19-3.83-82.19-8.45,36.79-8.44,82.19-8.44S300,515.4,300,520.21Z"/><path class="cls-179" d="M299.66,520.21c0,4.62-36.59,8.45-81.9,8.45s-81.9-3.83-81.9-8.45,36.6-8.44,81.9-8.44S299.66,515.4,299.66,520.21Z"/><path class="cls-180" d="M299.37,520.21c0,4.62-36.5,8.45-81.61,8.45s-81.6-3.83-81.6-8.45,36.49-8.44,81.6-8.44S299.37,515.4,299.37,520.21Z"/><path class="cls-181" d="M299,520.21c0,4.62-36.5,8.45-81.22,8.45s-81.21-3.83-81.21-8.45,36.49-8.44,81.21-8.44S299,515.4,299,520.21Z"/><path class="cls-182" d="M298.88,520.21c0,4.62-36.3,8.45-80.92,8.45S137,524.83,137,520.21s36.3-8.44,80.92-8.44S298.88,515.6,298.88,520.21Z"/><path class="cls-183" d="M298.49,520.21c0,4.62-36.11,8.35-80.73,8.35S137,524.73,137,520.21s36.1-8.35,80.72-8.35S298.49,515.6,298.49,520.21Z"/><path class="cls-184" d="M298.19,520.21c0,4.62-36,8.35-80.43,8.35s-80.43-3.83-80.43-8.35,36-8.35,80.43-8.35S298.19,515.6,298.19,520.21Z"/><ellipse class="cls-185" cx="217.76" cy="520.21" rx="80.04" ry="8.35"/><path class="cls-186" d="M297.51,520.21c0,4.62-35.62,8.35-79.75,8.35S138,524.93,138,520.21s35.62-8.35,79.75-8.35S297.51,515.6,297.51,520.21Z"/><path class="cls-187" d="M297.21,520.21c0,4.52-35.51,8.35-79.45,8.35s-79.45-3.63-79.45-8.35,35.52-8.35,79.45-8.35S297.21,515.6,297.21,520.21Z"/></g><path class="cls-188" d="M174.61,370.93l24.17,125.51-16.93-.78-10.47-63.94C165.9,405.4,143,360.12,143,360.12Z"/><path class="cls-188" d="M214.63,372.5l18.1,129,16-5.79-8.41-64c-2.35-26.81,0-66.09,0-66.09Z"/><path class="cls-189" d="M133.9,186.58c-2.15,23.18-6,134.65-5.28,135.83L248,339.7c-.2-4.52,17.9-137.6,15.95-145.26l-62.14,17.48Z"/><polygon class="cls-190" points="160.42 110.86 196.43 112.23 196.63 102.41 158.47 103.69 160.42 110.86"/><polygon class="cls-191" points="161.99 108.2 197.9 109.58 197.9 99.76 159.84 101.03 161.99 108.2"/><polygon class="cls-190" points="245.35 122.35 212.97 112.03 215.8 103.39 249.27 116.65 245.35 122.35"/><polygon class="cls-191" points="243.69 119.7 211.5 109.38 214.14 100.74 247.6 114 243.69 119.7"/><path class="cls-188" d="M128.52,322.41s-.29,29.95,9.59,38.4,67.52,30.74,100.59,7.37c7.14-6.19,10.08-21.51,9.3-30.65Z"/><path class="cls-192" d="M187.72,127.65c-.49,5.21-3.62,8.94-6.75,8.64s-5.28-4.81-4.6-9.82,3.62-8.93,6.75-8.64S188.21,122.54,187.72,127.65Z"/><ellipse class="cls-192" cx="221.62" cy="132.58" rx="9.33" ry="5.48" transform="translate(65.7 338.45) rotate(-83.75)"/><path class="cls-193" d="M185.76,125.79c-.48,4.32-2.44,7.46-4.5,7.36s-3.32-3.83-2.83-8.15,2.44-7.46,4.5-7.37S186.25,121.66,185.76,125.79Z"/><path class="cls-193" d="M224,129.52c-.49,4.32-2.44,7.46-4.5,7.36s-3.13-3.83-2.84-8.15,2.45-7.46,4.51-7.36S224.51,125.2,224,129.52Z"/><path class="cls-194" d="M183.32,492.71l-25.34,8s-20.06-3.14-24.37,8.15c-2.84,7.46-3.52,10.12-3.52,10.12l71.43-.3c.29-6.48-1.86-24.16-1.86-24.16Z"/><path class="cls-195" d="M248.29,492.71l25.34,8s20.06-3.14,24.37,8.15c2.64,7.46,3.52,10.12,3.52,10.12l-71.43-.3c-.29-6.48,1.86-24.16,1.86-24.16Z"/><polygon class="cls-196" points="227.25 328.69 234.88 350.01 239.19 358.36 282.83 342.64 293.11 333.21 280.48 309.74 280.48 309.74 280.48 309.74 279.01 307.09 274.12 307.78 251.91 299.43 250.93 311.61 227.25 328.69"/><path class="cls-197" d="M280.38,309.74h0l-1.46-2.65-4.8.69-8.9-2.66c1.47,4.13,10.47,28.29,15.46,38.31l2.15-.79,5.68-5.2,4.11-5.31Z"/><path class="cls-198" d="M262.48,207c-.2,2.65-.3,6.68-.78,11.49,42.95,31.82,29.84,57.75,6.45,84.17,0,0,11.65,31.82,16.74,40.95C365.61,283.42,281.27,219.87,262.48,207Z"/><path class="cls-199" d="M270,97.7c0-11.49-.78-20.43-2.35-26.33l-21.23-.78-3.62-.2c-23.58-1-47.26-2-70.74-2.85-2.35,0-4.51-.19-6.76-.29l-25.34-1A194.08,194.08,0,0,0,137,90c-.79,10-1.37,21.8-2,35,3.62-4.32,5.48-16.5,6-19,1.86-9.33,3.32-18.75,9.59-26.32,12.91-15.12,22-1.47,33.66,7s25.54,13.35,39.92,12.76a68.36,68.36,0,0,0,20.84-4.12c3.82-1.38,10.57-6.68,14.87-5.3,6,1.86,5.78,12.76,6.27,17.67.29,3.34-1,15.62,2.15,17.68l.78.49C269.82,115.47,270.11,106,270,97.7Z"/><path class="cls-188" d="M280.29,87.09A75.57,75.57,0,0,1,277.64,107c-1.17,4.32-3.52,13.94-7.82,16.1-2.35-4.32-.49-9.82-1-14.43s-.78-10.32-2.94-14.64c-4.6-8.94-13.79-15.52-10-26.42,2.84-8,11.45-6.28,16.93-1.47S280.09,79.92,280.29,87.09Z"/><path class="cls-188" d="M278.23,74.62a19.32,19.32,0,0,0-5.48-8.45,14.63,14.63,0,0,0-5-3.14c-5.48,3.34-9.59,9.82-11.45,16.1,2.35,5.21,6.66,9.63,9.49,14.93s2.65,9.82,2.94,14.64-1.37,10,.78,14.14c4.8-7.17,3.82-21.61,2.16-28.09-1.18-4.52-3.14-8-1.18-12.67A17.21,17.21,0,0,1,278.23,74.62Z"/><path class="cls-188" d="M158.76,39.46c-3.52,5.69-4.6,13.35-2.15,19.44s9.58,8.15,15.55,10.81a83.2,83.2,0,0,1,17.71,10.6c5.78,4.62,11.65,9.63,18.89,11.79,11,3.34,22.9,2.94,34,.78,28-5.5,46.58-47.43,29.06-72.38,2,13.65-6.45,16.11-16,22.29,9.78-11,2.34-32.41-11.45-38.79,17.12,38.3-27,30.74-48.53,28.09C183.42,31,166.39,27.28,158.76,39.46Z"/><path class="cls-188" d="M143.69,47.31a20.45,20.45,0,0,1,10.76,2.16c4,2,8.12,3.83,11.45,6.68s7.34,8,6.46,11.3-2.94,1.37-5.19,1.17c-4-.19-8.61,0-12.23,1.67-12.23,6-15.56,22.3-17.61,34.48-.49,2.65-.29,6.28-2.35,8.44-5.28-3.83-5.18-16-6.26-22-2.35-12.27-2.84-29.26,5.77-39.48A13.3,13.3,0,0,1,143.69,47.31Z"/><path class="cls-188" d="M271.68,21a24.73,24.73,0,0,1,.29,4.62c1.17,4.81,2.45,9.52,1.86,14.93a61.69,61.69,0,0,1-6.26,19.83c-4.31,8-10.08,16.5-18.89,20.14s-18.59,6.19-29.16,3.63-18.39-7.66-27.88-11.78-18.2-11.79-28.67-11a20.53,20.53,0,0,0-4.11.78c3.32,4,8.8,5.5,13.6,7.66a83.25,83.25,0,0,1,17.71,10.61C195.94,85,201.81,90,209.05,92.2c11,3.34,22.9,2.94,34,.78C270.7,87.68,294.67,42.6,271.68,21Z"/><path class="cls-188" d="M162.67,61.46c-8.41.68-19.08,7-22.89,14.83-5.48,11-3.53,23-3.53,34.76.69-2,.69-4.51,1.18-6.28,1.95-12,5.28-28.48,17.61-34.48,3.52-1.67,8.12-1.86,12.23-1.67,2.15.2,4.5,1.38,5.19-1.17s-.3-3.15-1.37-5A24.26,24.26,0,0,0,162.67,61.46Z"/><path class="cls-200" d="M149.46,57.62c5.19-.29,7.34-4.61,2-7s-12.13,1-15.07,6-1.86,8.65-2.64,13.65C134.69,61.75,141.83,58.12,149.46,57.62Z"/><path class="cls-200" d="M229.89,62.63c-10.95,5-18.88,1.87-29.15-2.65-4.51-2-8.91-3.34-13.41-5.5-8.61-3.83-17.22-8.15-26.71-3.83-.3-5.3,2.84-10.51,6.94-13.65a18.78,18.78,0,0,1,12.24-3.63c6.94.29,14.77,6,21.23,2.65-3.62,3.14-7.34,4.81-12.13,4.32s-10-2.46-12.24,1.67c8.62-4.32,22.71,7.86,30,10.8,11.16,4.62,23.68,8.84,34-.19C236.84,57.13,235.18,60.28,229.89,62.63Z"/><path class="cls-201" d="M152.4,140.12s53,30,95.69,5.31c1.37,26.32-18.2,56.08-52.54,52.54C166.19,195,150.93,175.58,152.4,140.12Z"/><path class="cls-202" d="M167.86,187.07c6.95,6.19,16.24,9.82,27.69,11a46.19,46.19,0,0,0,30-6.68c-7.93-9.13-10.47-12.27-27-12.47C176.66,178.92,173.63,184.12,167.86,187.07Z"/><path class="cls-3" d="M152.4,140.12a46.58,46.58,0,0,0,0,7.47c9.59,6.19,50.88,30.15,95,8.84a49.36,49.36,0,0,0,.68-10.81C205.53,170.08,152.4,140.12,152.4,140.12Z"/><path class="cls-203" d="M152.4,140.12a42.92,42.92,0,0,0,0,7.17c5-5.69,20.35,7.17,48.53,9.63s43.64-9.63,46.58-.79a55.55,55.55,0,0,0,.68-10.6C205.53,170.08,152.4,140.12,152.4,140.12Z"/><path class="cls-3" d="M167.08,186.29c7.14,6.67,16.53,10.6,28.47,11.78,13.89,1.47,25.54-2.65,34.15-9.62C203.48,198.07,173.53,185.11,167.08,186.29Z"/><polygon class="cls-197" points="192.81 299.92 200.74 313.57 223.63 288.92 211.79 229.3 210.52 212.9 192.81 299.92"/><polygon class="cls-188" points="187.13 220.07 172.75 282.44 195.26 309.54 219.13 285.38 208.56 220.66 187.13 220.07"/><polygon class="cls-188" points="185.47 206.42 184.49 220.17 210.72 223.51 211.5 207.01 185.47 206.42"/><polygon class="cls-204" points="209.54 226.16 208.56 220.66 187.13 220.07 186.25 223.71 209.54 226.16"/><polygon class="cls-188" points="183.32 208.68 182.54 221.54 213.16 224.88 213.94 209.76 183.32 208.68"/><path class="cls-191" d="M214,254.15,184.79,229.4l-3.62,15.81,35.61,26.62Zm-35.62,4.32-2,8.84,32,29.17,8.12-8.15Z"/><path class="cls-205" d="M208.86,246.69a3.67,3.67,0,0,1-3.53,3.63L180,249a3.7,3.7,0,0,1-3.13-4h0a3.67,3.67,0,0,1,3.52-3.64l25.35,1.38A3.7,3.7,0,0,1,208.86,246.69Z"/><path class="cls-206" d="M191,245.8c0,1.38-.68,2.36-1.17,2.36l-7.83-.49c-.49,0-1-1.18-.78-2.46h0c0-1.37.68-2.35,1.17-2.35l7.83.49C190.66,243.35,191,244.53,191,245.8Z"/><path class="cls-207" d="M34.2,250.81s.49,38.31,59.39,26.42c56.07-11.29,31.8-83.38-4.79-78.08Z"/><path class="cls-199" d="M104.35,248.45c-4.79-6.48-32-8.64-58-9.13L34.2,250.81a35.49,35.49,0,0,0,16.53,23.77c6.17-1,19.57-4.32,19.87-14.63C89.29,264.76,113.85,261.62,104.35,248.45Z"/><path class="cls-208" d="M106.62,246.88a7.48,7.48,0,0,1-7.07,7.86h-.09L34.51,257.2a7.58,7.58,0,0,1-7.85-7.28h0v-.09L22.05,128.05a7.47,7.47,0,0,1,7.07-7.86h.09l64.95-2.46a7.47,7.47,0,0,1,7.85,7.08h0v.09Z"/><ellipse class="cls-209" cx="66.29" cy="243.84" rx="7.44" ry="7.46"/><path class="cls-208" d="M72.65,243.64a6.08,6.08,0,0,0-6.26-5.79A6.2,6.2,0,0,0,60.62,244a6.06,6.06,0,0,0,6.16,5.8,5.9,5.9,0,0,0,5.87-5.89h0Z"/><path class="cls-188" d="M101.59,228.62a3.3,3.3,0,0,1-3.11,3.53h-.19L34.07,234.5a3.28,3.28,0,0,1-3.49-3.13v-.2l-3.5-95.67A3.3,3.3,0,0,1,30.19,132h.19l64.21-2.35a3.29,3.29,0,0,1,3.5,3.14V133Z"/><path class="cls-209" d="M67.76,125.37a1.62,1.62,0,0,1-1.5,1.69h-.2l-9.12.27A1.74,1.74,0,0,1,55,126v-.18h0a1.62,1.62,0,0,1,1.5-1.69h.2l9.12-.27a1.73,1.73,0,0,1,1.9,1.34v.18Z"/><path class="cls-199" d="M62.38,233.62c-.3-7.17-4.5-14.34-11.16-15.12,16-29.27-17.9-25.93-17.9-25.93l8.41,41.94Z"/><path class="cls-207" d="M25.78,251.3l24.56-6.18c7.44-2.46,12.23-23,.2-25.64s-33,4.62-37.28,6.29S.44,246.78,25.78,251.3Z"/><path class="cls-207" d="M34.1,272.62c9.29,1.86,22.5,1.47,22.5,1.47,6.95-.2,16.54-16.11,6.95-21.61s-29.35-5-33.46-4.81S12.87,268.29,34.1,272.62Z"/><path class="cls-207" d="M18.83,224.69l23.39-6c7.14-2.36,11.64-22.79.2-25.44s-31.51,3.83-35.52,6S-5.43,220.07,18.83,224.69Z"/><path class="cls-207" d="M126.76,237.85c-11.25-37.42,17.42-50.29-13.11-54.71-24.85-3.63-16.05,41.64-5.77,49.4"/><path class="cls-210" d="M53.08,151.17v14.2H38.89a3.73,3.73,0,0,0-3.42,3.39v15.8A3.73,3.73,0,0,0,38.89,188H53.08v15a3.87,3.87,0,0,0,3.38,3.7H72.21A3.86,3.86,0,0,0,75.59,203V188.94h14.2a3.75,3.75,0,0,0,3.41-3.41V169.85a3.94,3.94,0,0,0-3.6-3.5h-14V151.28a3.84,3.84,0,0,0-3.47-3.59H56.45A3.65,3.65,0,0,0,53.08,151.17Z"/><path class="cls-211" d="M50.34,170.54a9.14,9.14,0,0,0,1.16,4c.1.19.2.29.29.48L53,176.28l.58.48c.68.49,2.13,1.56,2.81,2l4.46,3.11a1.43,1.43,0,0,1,.38.29L66,185.7a1.51,1.51,0,0,1,.39.29l5.91,4.18A11.39,11.39,0,0,1,74,191.53l.39.39a5.38,5.38,0,0,1,.77,1.27,7.8,7.8,0,0,1,.39,1.45c1.26-1.26,1.65-3.5,1.94-5.44a14,14,0,0,0,.09-1.94V186l-.09-.77a12.6,12.6,0,0,0-.68-2.72,7.84,7.84,0,0,0-.87-1.56l-1-.87c-.1-.1-.19-.1-.19-.2L73.67,179a11,11,0,0,0-1.06-.88l-1.46-1.07c-.09,0-.09-.09-.19-.09l-1.55-1.07c-.68-.49-1.35-1.07-2.13-1.56L65.35,173a1.16,1.16,0,0,1-.39-.29l-.2-.19-2.13-1.56-1.93-1.36-.39-.29-1.45-.87c-.1-.1-.1-.1-.19-.1s-.2-.1-.2-.2-.29-.19-.39-.29l-.87-.58c-.38-.29-.87-.58-1.26-.87l-.67-.59a8.47,8.47,0,0,1-1-.87l-.58-.59c0-.09-.1-.19-.2-.29a6.33,6.33,0,0,1-.48-1.16,8.25,8.25,0,0,1-.29-3.11.09.09,0,0,0-.1.09l-.29.39c-.09.2-.48.88-.58,1.07-.19.39-.29.78-.48,1.17l-.39,1.26a19.29,19.29,0,0,0-.77,4.18v2.14a.63.63,0,0,1,.19.48Z"/><path class="cls-211" d="M76.17,194.73a5.44,5.44,0,0,0,1-1.67c1-2.75,1.27-7.36.2-10.21a6.89,6.89,0,0,0-2.06-2.65l-1.17-1.08A17.75,17.75,0,0,0,72,177.54l-3.53-2.45-.88-.59-.88-.59L64,172c-.49-.39-1.17-.88-1.76-1.27l-.88-.69-1.76-1.28a4.85,4.85,0,0,1-.88-.68A20.08,20.08,0,0,1,57,166.84c-.3-.3-1-.69-1.28-1s-.78-.69-1.17-1.08a6,6,0,0,1-.69-.89,6.55,6.55,0,0,1-.78-2.65v-1.37a8.55,8.55,0,0,0-1.37,2.65,20.5,20.5,0,0,0-1.07,4.91,14.51,14.51,0,0,0,.58,5.79,8.53,8.53,0,0,0,1.57,2.56,6.16,6.16,0,0,0,.88.78l.1.1.58.39a1.91,1.91,0,0,1,.49.4l4.5,3.14,2.25,1.57,1.08.79,5.58,3.92c1.27.89,2.54,1.87,3.81,2.75l1.37,1,.3.19a7.45,7.45,0,0,1,1.86,2.07,2.93,2.93,0,0,1,.58,1.86Z"/><image id="image" class="cls-212" width="2364" height="2364" transform="translate(3.17 352.26) scale(0.07 0.07)" xlink:href="C7043F26.png"/><image id="image-2" class="cls-212" width="2433" height="2433" transform="translate(219.96 222.62) scale(0.01 0.01)" xlink:href="C7043F25.png"/></svg>